<svg xmlns="http://www.w3.org/2000/svg" xmlns:xlink="http://www.w3.org/1999/xlink" xmlns:lucid="lucid" width="943" height="769"><g transform="translate(-224 -172)" lucid:page-tab-id="0_0"><path d="M240 548a6 6 0 0 1 6-6h398a6 6 0 0 1 6 6v196a6 6 0 0 1-6 6H246a6 6 0 0 1-6-6z" stroke="#979ea8" stroke-width="4" fill="#f5f9ff"/><path d="M282.5 484a6 6 0 0 1 6-6h328a6 6 0 0 1 6 6v51.33a6 6 0 0 1-6 6h-328a6 6 0 0 1-6-6z" stroke="#000" stroke-opacity="0" fill="#fff" fill-opacity="0"/><use xlink:href="#a" transform="matrix(1,0,0,1,287.5,483) translate(44.388888888888886 33.236111111111114)"/><path d="M381.67 524c10.12 0 18.33 8.2 18.33 18.33 0 10.13-8.2 18.34-18.33 18.34H278.33c-10.12 0-18.33-8.2-18.33-18.34 0-10.12 8.2-18.33 18.33-18.33z" stroke="#979ea8" stroke-width="4" fill="#bad8ff"/><use xlink:href="#b" transform="matrix(1,0,0,1,265,529) translate(12.833333333333343 17.6875)"/><use xlink:href="#c" transform="matrix(1,0,0,1,265,529) translate(72.72222222222221 17.6875)"/><path d="M240 786a6 6 0 0 1 6-6h398a6 6 0 0 1 6 6v138a6 6 0 0 1-6 6H246a6 6 0 0 1-6-6z" stroke="#979ea8" stroke-width="4" fill="#ffcfcf"/><path d="M381.67 764c10.12 0 18.33 8.2 18.33 18.33 0 10.13-8.2 18.34-18.33 18.34H278.33c-10.12 0-18.33-8.2-18.33-18.34 0-10.12 8.2-18.33 18.33-18.33z" stroke="#979ea8" stroke-width="4" fill="#ffdda6"/><use xlink:href="#b" transform="matrix(1,0,0,1,265,769) translate(5.055555555555571 17.6875)"/><use xlink:href="#d" transform="matrix(1,0,0,1,265,769) translate(64.94444444444444 17.6875)"/><path d="M260 572a6 6 0 0 1 6-6h350.5a6 6 0 0 1 6 6v157a6 6 0 0 1-6 6H266a6 6 0 0 1-6-6z" stroke="#000" stroke-opacity="0" fill="#fff" fill-opacity="0"/><use xlink:href="#e" transform="matrix(1,0,0,1,265,571) translate(0 14.439999999999994)"/><use xlink:href="#f" transform="matrix(1,0,0,1,265,571) translate(72.01 14.439999999999994)"/><use xlink:href="#g" transform="matrix(1,0,0,1,265,571) translate(87.55 14.439999999999994)"/><use xlink:href="#h" transform="matrix(1,0,0,1,265,571) translate(103.08999999999999 14.439999999999994)"/><use xlink:href="#i" transform="matrix(1,0,0,1,265,571) translate(118.62999999999998 14.439999999999994)"/><use xlink:href="#j" transform="matrix(1,0,0,1,265,571) translate(0 38.43999999999998)"/><use xlink:href="#k" transform="matrix(1,0,0,1,265,571) translate(108.01 38.43999999999998)"/><use xlink:href="#l" transform="matrix(1,0,0,1,265,571) translate(36.01 62.43999999999998)"/><use xlink:href="#m" transform="matrix(1,0,0,1,265,571) translate(51.55 62.43999999999998)"/><use xlink:href="#g" transform="matrix(1,0,0,1,265,571) translate(65.05 62.43999999999998)"/><use xlink:href="#n" transform="matrix(1,0,0,1,265,571) translate(80.58999999999999 62.43999999999998)"/><use xlink:href="#o" transform="matrix(1,0,0,1,265,571) translate(96.12999999999998 62.43999999999998)"/><use xlink:href="#p" transform="matrix(1,0,0,1,265,571) translate(111.66999999999997 62.43999999999998)"/><use xlink:href="#q" transform="matrix(1,0,0,1,265,571) translate(154.80999999999995 62.43999999999998)"/><use xlink:href="#q" transform="matrix(1,0,0,1,265,571) translate(175.92999999999995 62.43999999999998)"/><use xlink:href="#r" transform="matrix(1,0,0,1,265,571) translate(197.04999999999995 62.43999999999998)"/><use xlink:href="#s" transform="matrix(1,0,0,1,265,571) translate(36.01 86.43999999999997)"/><use xlink:href="#t" transform="matrix(1,0,0,1,265,571) translate(51.55 86.43999999999997)"/><use xlink:href="#o" transform="matrix(1,0,0,1,265,571) translate(67.08999999999999 86.43999999999997)"/><use xlink:href="#n" transform="matrix(1,0,0,1,265,571) translate(82.62999999999998 86.43999999999997)"/><use xlink:href="#g" transform="matrix(1,0,0,1,265,571) translate(98.16999999999997 86.43999999999997)"/><use xlink:href="#p" transform="matrix(1,0,0,1,265,571) translate(113.70999999999997 86.43999999999997)"/><use xlink:href="#u" transform="matrix(1,0,0,1,265,571) translate(156.84999999999997 86.43999999999997)"/><use xlink:href="#v" transform="matrix(1,0,0,1,265,571) translate(177.96999999999997 86.43999999999997)"/><use xlink:href="#w" transform="matrix(1,0,0,1,265,571) translate(36.01 110.43999999999997)"/><use xlink:href="#x" transform="matrix(1,0,0,1,265,571) translate(51.55 110.43999999999997)"/><use xlink:href="#h" transform="matrix(1,0,0,1,265,571) translate(67.08999999999999 110.43999999999997)"/><use xlink:href="#n" transform="matrix(1,0,0,1,265,571) translate(82.62999999999998 110.43999999999997)"/><use xlink:href="#y" transform="matrix(1,0,0,1,265,571) translate(98.16999999999997 110.43999999999997)"/><use xlink:href="#z" transform="matrix(1,0,0,1,265,571) translate(36.01 134.43999999999997)"/><use xlink:href="#A" transform="matrix(1,0,0,1,265,571) translate(110.26999999999998 134.43999999999997)"/><use xlink:href="#t" transform="matrix(1,0,0,1,265,571) translate(132.28999999999996 134.43999999999997)"/><use xlink:href="#B" transform="matrix(1,0,0,1,265,571) translate(147.82999999999996 134.43999999999997)"/><use xlink:href="#m" transform="matrix(1,0,0,1,265,571) translate(169.84999999999997 134.43999999999997)"/><use xlink:href="#C" transform="matrix(1,0,0,1,265,571) translate(183.34999999999997 134.43999999999997)"/><use xlink:href="#x" transform="matrix(1,0,0,1,265,571) translate(211.84999999999997 134.43999999999997)"/><use xlink:href="#h" transform="matrix(1,0,0,1,265,571) translate(227.38999999999996 134.43999999999997)"/><use xlink:href="#n" transform="matrix(1,0,0,1,265,571) translate(242.92999999999995 134.43999999999997)"/><use xlink:href="#D" transform="matrix(1,0,0,1,265,571) translate(258.46999999999997 134.43999999999997)"/><use xlink:href="#E" transform="matrix(1,0,0,1,265,571) translate(0 150.41777777777776)"/><use xlink:href="#e" transform="matrix(1,0,0,1,265,571) translate(0 169.10666666666663)"/><use xlink:href="#F" transform="matrix(1,0,0,1,265,571) translate(72.01 169.10666666666663)"/><use xlink:href="#G" transform="matrix(1,0,0,1,265,571) translate(96.63 169.10666666666663)"/><use xlink:href="#H" transform="matrix(1,0,0,1,265,571) translate(121.86999999999999 169.10666666666663)"/><use xlink:href="#I" transform="matrix(1,0,0,1,265,571) translate(137.41 169.10666666666663)"/><use xlink:href="#J" transform="matrix(1,0,0,1,265,571) translate(0 193.10666666666663)"/><path d="M260 810a6 6 0 0 1 6-6h383a6 6 0 0 1 6 6v108a6 6 0 0 1-6 6H266a6 6 0 0 1-6-6z" stroke="#000" stroke-opacity="0" fill="#fff" fill-opacity="0"/><g><use xlink:href="#K" transform="matrix(1,0,0,1,265,809) translate(0 14.439999999999998)"/><use xlink:href="#L" transform="matrix(1,0,0,1,265,809) translate(108.01 14.439999999999998)"/><use xlink:href="#M" transform="matrix(1,0,0,1,265,809) translate(36.01 38.44)"/><use xlink:href="#N" transform="matrix(1,0,0,1,265,809) translate(60.629999999999995 38.44)"/><use xlink:href="#O" transform="matrix(1,0,0,1,265,809) translate(74.13 38.44)"/><use xlink:href="#P" transform="matrix(1,0,0,1,265,809) translate(99.36999999999999 38.44)"/><use xlink:href="#Q" transform="matrix(1,0,0,1,265,809) translate(114.91 38.44)"/><use xlink:href="#R" transform="matrix(1,0,0,1,265,809) translate(130.45 38.44)"/><use xlink:href="#S" transform="matrix(1,0,0,1,265,809) translate(173.58999999999997 38.44)"/><use xlink:href="#S" transform="matrix(1,0,0,1,265,809) translate(194.70999999999998 38.44)"/><use xlink:href="#T" transform="matrix(1,0,0,1,265,809) translate(215.82999999999998 38.44)"/><use xlink:href="#U" transform="matrix(1,0,0,1,265,809) translate(36.01 62.43999999999999)"/><use xlink:href="#V" transform="matrix(1,0,0,1,265,809) translate(51.55 62.43999999999999)"/><use xlink:href="#Q" transform="matrix(1,0,0,1,265,809) translate(67.09 62.43999999999999)"/><use xlink:href="#P" transform="matrix(1,0,0,1,265,809) translate(82.63 62.43999999999999)"/><use xlink:href="#Q" transform="matrix(1,0,0,1,265,809) translate(98.16999999999999 62.43999999999999)"/><use xlink:href="#R" transform="matrix(1,0,0,1,265,809) translate(113.70999999999998 62.43999999999999)"/><use xlink:href="#S" transform="matrix(1,0,0,1,265,809) translate(156.84999999999997 62.43999999999999)"/><use xlink:href="#T" transform="matrix(1,0,0,1,265,809) translate(177.96999999999997 62.43999999999999)"/><use xlink:href="#W" transform="matrix(1,0,0,1,265,809) translate(36.01 86.43999999999998)"/><use xlink:href="#V" transform="matrix(1,0,0,1,265,809) translate(51.55 86.43999999999998)"/><use xlink:href="#Q" transform="matrix(1,0,0,1,265,809) translate(67.09 86.43999999999998)"/><use xlink:href="#P" transform="matrix(1,0,0,1,265,809) translate(82.63 86.43999999999998)"/><use xlink:href="#X" transform="matrix(1,0,0,1,265,809) translate(98.16999999999999 86.43999999999998)"/><use xlink:href="#R" transform="matrix(1,0,0,1,265,809) translate(113.70999999999998 86.43999999999998)"/><use xlink:href="#T" transform="matrix(1,0,0,1,265,809) translate(156.84999999999997 86.43999999999998)"/><use xlink:href="#Y" transform="matrix(1,0,0,1,265,809) translate(36.01 110.43999999999998)"/><use xlink:href="#Z" transform="matrix(1,0,0,1,265,809) translate(110.26999999999998 110.43999999999998)"/><use xlink:href="#N" transform="matrix(1,0,0,1,265,809) translate(147.84999999999997 110.43999999999998)"/><use xlink:href="#aa" transform="matrix(1,0,0,1,265,809) translate(161.34999999999997 110.43999999999998)"/><use xlink:href="#V" transform="matrix(1,0,0,1,265,809) translate(193.06999999999996 110.43999999999998)"/><use xlink:href="#ab" transform="matrix(1,0,0,1,265,809) translate(208.60999999999996 110.43999999999998)"/><use xlink:href="#V" transform="matrix(1,0,0,1,265,809) translate(230.62999999999994 110.43999999999998)"/><use xlink:href="#X" transform="matrix(1,0,0,1,265,809) translate(246.16999999999993 110.43999999999998)"/><use xlink:href="#N" transform="matrix(1,0,0,1,265,809) translate(261.7099999999999 110.43999999999998)"/><use xlink:href="#Q" transform="matrix(1,0,0,1,265,809) translate(275.2099999999999 110.43999999999998)"/><use xlink:href="#P" transform="matrix(1,0,0,1,265,809) translate(290.74999999999994 110.43999999999998)"/><use xlink:href="#ac" transform="matrix(1,0,0,1,265,809) translate(306.28999999999996 110.43999999999998)"/></g><path d="M688 246a6 6 0 0 1 6-6h453a6 6 0 0 1 6 6v366a6 6 0 0 1-6 6H694a6 6 0 0 1-6-6z" stroke="#979ea8" stroke-width="4" fill="#f5f9ff"/><path d="M762 182a6 6 0 0 1 6-6h328a6 6 0 0 1 6 6v51.33a6 6 0 0 1-6 6H768a6 6 0 0 1-6-6z" stroke="#000" stroke-opacity="0" fill="#fff" fill-opacity="0"/><g><use xlink:href="#ad" transform="matrix(1,0,0,1,767,181) translate(9.882716049382708 33.236111111111114)"/><use xlink:href="#ae" transform="matrix(1,0,0,1,767,181) translate(153.92592592592592 33.236111111111114)"/><use xlink:href="#af" transform="matrix(1,0,0,1,767,181) translate(189.07407407407408 33.236111111111114)"/></g><path d="M829.67 223.33c10.12 0 18.33 8.2 18.33 18.34 0 10.12-8.2 18.33-18.33 18.33H726.33c-10.12 0-18.33-8.2-18.33-18.33 0-10.13 8.2-18.34 18.33-18.34z" stroke="#979ea8" stroke-width="4" fill="#bad8ff"/><g><use xlink:href="#b" transform="matrix(1,0,0,1,713,228.33333333333334) translate(12.833333333333343 17.6875)"/><use xlink:href="#c" transform="matrix(1,0,0,1,713,228.33333333333334) translate(72.72222222222221 17.6875)"/></g><path d="M688 671a6 6 0 0 1 6-6h453a6 6 0 0 1 6 6v253a6 6 0 0 1-6 6H694a6 6 0 0 1-6-6z" stroke="#979ea8" stroke-width="4" fill="#d7ffb9"/><path d="M829.67 645c10.12 0 18.33 8.2 18.33 18.33 0 10.13-8.2 18.34-18.33 18.34H726.33c-10.12 0-18.33-8.2-18.33-18.34 0-10.12 8.2-18.33 18.33-18.33z" stroke="#979ea8" stroke-width="4" fill="#ffdda6"/><g><use xlink:href="#b" transform="matrix(1,0,0,1,713,650) translate(5.055555555555571 17.6875)"/><use xlink:href="#d" transform="matrix(1,0,0,1,713,650) translate(64.94444444444444 17.6875)"/></g><path d="M708 271a6 6 0 0 1 6-6h424a6 6 0 0 1 6 6v329a6 6 0 0 1-6 6H714a6 6 0 0 1-6-6z" stroke="#000" stroke-opacity="0" fill="#fff" fill-opacity="0"/><g><use xlink:href="#e" transform="matrix(1,0,0,1,713,270) translate(0 14.439999999999994)"/><use xlink:href="#f" transform="matrix(1,0,0,1,713,270) translate(72.01 14.439999999999994)"/><use xlink:href="#g" transform="matrix(1,0,0,1,713,270) translate(87.55 14.439999999999994)"/><use xlink:href="#h" transform="matrix(1,0,0,1,713,270) translate(103.08999999999999 14.439999999999994)"/><use xlink:href="#i" transform="matrix(1,0,0,1,713,270) translate(118.62999999999998 14.439999999999994)"/><use xlink:href="#ag" transform="matrix(1,0,0,1,713,270) translate(0 38.43999999999998)"/><use xlink:href="#ah" transform="matrix(1,0,0,1,713,270) translate(36.01 62.43999999999998)"/><use xlink:href="#h" transform="matrix(1,0,0,1,713,270) translate(56.22999999999999 62.43999999999998)"/><use xlink:href="#m" transform="matrix(1,0,0,1,713,270) translate(71.76999999999998 62.43999999999998)"/><use xlink:href="#ai" transform="matrix(1,0,0,1,713,270) translate(85.26999999999998 62.43999999999998)"/><use xlink:href="#p" transform="matrix(1,0,0,1,713,270) translate(106.38999999999999 62.43999999999998)"/><use xlink:href="#aj" transform="matrix(1,0,0,1,713,270) translate(149.52999999999997 62.43999999999998)"/><use xlink:href="#u" transform="matrix(1,0,0,1,713,270) translate(170.64999999999998 62.43999999999998)"/><use xlink:href="#ak" transform="matrix(1,0,0,1,713,270) translate(191.76999999999998 62.43999999999998)"/><use xlink:href="#al" transform="matrix(1,0,0,1,713,270) translate(36.01 86.43999999999997)"/><use xlink:href="#al" transform="matrix(1,0,0,1,713,270) translate(36.01 110.43999999999997)"/><use xlink:href="#am" transform="matrix(1,0,0,1,713,270) translate(36.01 134.43999999999997)"/><use xlink:href="#k" transform="matrix(1,0,0,1,713,270) translate(72.01 134.43999999999997)"/><use xlink:href="#an" transform="matrix(1,0,0,1,713,270) translate(36.01 158.43999999999997)"/><use xlink:href="#ao" transform="matrix(1,0,0,1,713,270) translate(57.129999999999995 158.43999999999997)"/><use xlink:href="#m" transform="matrix(1,0,0,1,713,270) translate(72.66999999999999 158.43999999999997)"/><use xlink:href="#ap" transform="matrix(1,0,0,1,713,270) translate(86.16999999999999 158.43999999999997)"/><use xlink:href="#p" transform="matrix(1,0,0,1,713,270) translate(107.28999999999999 158.43999999999997)"/><use xlink:href="#q" transform="matrix(1,0,0,1,713,270) translate(150.42999999999998 158.43999999999997)"/><use xlink:href="#q" transform="matrix(1,0,0,1,713,270) translate(171.54999999999998 158.43999999999997)"/><use xlink:href="#r" transform="matrix(1,0,0,1,713,270) translate(192.67 158.43999999999997)"/><use xlink:href="#aq" transform="matrix(1,0,0,1,713,270) translate(36 182.43999999999997)"/><use xlink:href="#h" transform="matrix(1,0,0,1,713,270) translate(49.49999999999999 182.43999999999997)"/><use xlink:href="#t" transform="matrix(1,0,0,1,713,270) translate(65.03999999999999 182.43999999999997)"/><use xlink:href="#ai" transform="matrix(1,0,0,1,713,270) translate(80.57999999999998 182.43999999999997)"/><use xlink:href="#p" transform="matrix(1,0,0,1,713,270) translate(101.69999999999999 182.43999999999997)"/><use xlink:href="#aj" transform="matrix(1,0,0,1,713,270) translate(144.83999999999997 182.43999999999997)"/><use xlink:href="#ar" transform="matrix(1,0,0,1,713,270) translate(165.95999999999998 182.43999999999997)"/><use xlink:href="#as" transform="matrix(1,0,0,1,713,270) translate(187.97999999999996 182.43999999999997)"/><use xlink:href="#u" transform="matrix(1,0,0,1,713,270) translate(218.79999999999995 182.43999999999997)"/><use xlink:href="#at" transform="matrix(1,0,0,1,713,270) translate(239.91999999999996 182.43999999999997)"/><use xlink:href="#i" transform="matrix(1,0,0,1,713,270) translate(270.41999999999996 182.43999999999997)"/><use xlink:href="#aq" transform="matrix(1,0,0,1,713,270) translate(36 206.43999999999997)"/><use xlink:href="#h" transform="matrix(1,0,0,1,713,270) translate(49.49999999999999 206.43999999999997)"/><use xlink:href="#m" transform="matrix(1,0,0,1,713,270) translate(65.03999999999999 206.43999999999997)"/><use xlink:href="#ai" transform="matrix(1,0,0,1,713,270) translate(78.53999999999999 206.43999999999997)"/><use xlink:href="#p" transform="matrix(1,0,0,1,713,270) translate(99.66 206.43999999999997)"/><use xlink:href="#au" transform="matrix(1,0,0,1,713,270) translate(142.79999999999998 206.43999999999997)"/><use xlink:href="#av" transform="matrix(1,0,0,1,713,270) translate(163.92 206.43999999999997)"/><use xlink:href="#au" transform="matrix(1,0,0,1,713,270) translate(185.94 206.43999999999997)"/><use xlink:href="#au" transform="matrix(1,0,0,1,713,270) translate(207.06 206.43999999999997)"/><use xlink:href="#aw" transform="matrix(1,0,0,1,713,270) translate(228.18 206.43999999999997)"/><use xlink:href="#ax" transform="matrix(1,0,0,1,713,270) translate(249.3 206.43999999999997)"/><use xlink:href="#aq" transform="matrix(1,0,0,1,713,270) translate(36 230.43999999999997)"/><use xlink:href="#h" transform="matrix(1,0,0,1,713,270) translate(49.49999999999999 230.43999999999997)"/><use xlink:href="#x" transform="matrix(1,0,0,1,713,270) translate(65.03999999999999 230.43999999999997)"/><use xlink:href="#ai" transform="matrix(1,0,0,1,713,270) translate(80.57999999999998 230.43999999999997)"/><use xlink:href="#p" transform="matrix(1,0,0,1,713,270) translate(101.69999999999999 230.43999999999997)"/><use xlink:href="#at" transform="matrix(1,0,0,1,713,270) translate(144.83999999999997 230.43999999999997)"/><use xlink:href="#ar" transform="matrix(1,0,0,1,713,270) translate(175.33999999999997 230.43999999999997)"/><use xlink:href="#ay" transform="matrix(1,0,0,1,713,270) translate(197.35999999999996 230.43999999999997)"/><use xlink:href="#az" transform="matrix(1,0,0,1,713,270) translate(228.03999999999996 230.43999999999997)"/><use xlink:href="#aA" transform="matrix(1,0,0,1,713,270) translate(258.25999999999993 230.43999999999997)"/><use xlink:href="#aB" transform="matrix(1,0,0,1,713,270) translate(289.9199999999999 230.43999999999997)"/><use xlink:href="#aq" transform="matrix(1,0,0,1,713,270) translate(36 254.43999999999997)"/><use xlink:href="#h" transform="matrix(1,0,0,1,713,270) translate(49.49999999999999 254.43999999999997)"/><use xlink:href="#aC" transform="matrix(1,0,0,1,713,270) translate(65.03999999999999 254.43999999999997)"/><use xlink:href="#ai" transform="matrix(1,0,0,1,713,270) translate(76.07999999999998 254.43999999999997)"/><use xlink:href="#p" transform="matrix(1,0,0,1,713,270) translate(97.19999999999999 254.43999999999997)"/><use xlink:href="#au" transform="matrix(1,0,0,1,713,270) translate(140.33999999999997 254.43999999999997)"/><use xlink:href="#aD" transform="matrix(1,0,0,1,713,270) translate(161.45999999999998 254.43999999999997)"/><use xlink:href="#aE" transform="matrix(1,0,0,1,713,270) translate(183.47999999999996 254.43999999999997)"/><use xlink:href="#aF" transform="matrix(1,0,0,1,713,270) translate(204.59999999999997 254.43999999999997)"/><use xlink:href="#au" transform="matrix(1,0,0,1,713,270) translate(225.71999999999997 254.43999999999997)"/><use xlink:href="#aG" transform="matrix(1,0,0,1,713,270) translate(246.83999999999997 254.43999999999997)"/><use xlink:href="#aq" transform="matrix(1,0,0,1,713,270) translate(36 278.43999999999994)"/><use xlink:href="#h" transform="matrix(1,0,0,1,713,270) translate(49.49999999999999 278.43999999999994)"/><use xlink:href="#t" transform="matrix(1,0,0,1,713,270) translate(65.03999999999999 278.43999999999994)"/><use xlink:href="#aH" transform="matrix(1,0,0,1,713,270) translate(80.57999999999998 278.43999999999994)"/><use xlink:href="#p" transform="matrix(1,0,0,1,713,270) translate(101.69999999999999 278.43999999999994)"/><use xlink:href="#u" transform="matrix(1,0,0,1,713,270) translate(144.83999999999997 278.43999999999994)"/><use xlink:href="#aI" transform="matrix(1,0,0,1,713,270) translate(165.95999999999998 278.43999999999994)"/><use xlink:href="#as" transform="matrix(1,0,0,1,713,270) translate(187.97999999999996 278.43999999999994)"/><use xlink:href="#au" transform="matrix(1,0,0,1,713,270) translate(218.79999999999995 278.43999999999994)"/><use xlink:href="#aJ" transform="matrix(1,0,0,1,713,270) translate(239.91999999999996 278.43999999999994)"/><use xlink:href="#n" transform="matrix(1,0,0,1,713,270) translate(265.81999999999994 278.43999999999994)"/><use xlink:href="#g" transform="matrix(1,0,0,1,713,270) translate(281.35999999999996 278.43999999999994)"/><use xlink:href="#x" transform="matrix(1,0,0,1,713,270) translate(296.9 278.43999999999994)"/><use xlink:href="#h" transform="matrix(1,0,0,1,713,270) translate(312.44 278.43999999999994)"/><use xlink:href="#aK" transform="matrix(1,0,0,1,713,270) translate(327.98 278.43999999999994)"/><use xlink:href="#aL" transform="matrix(1,0,0,1,713,270) translate(352.02 278.43999999999994)"/><use xlink:href="#aM" transform="matrix(1,0,0,1,713,270) translate(405.93999999999994 278.43999999999994)"/><use xlink:href="#z" transform="matrix(1,0,0,1,713,270) translate(36.01 302.43999999999994)"/><use xlink:href="#A" transform="matrix(1,0,0,1,713,270) translate(110.26999999999998 302.43999999999994)"/><use xlink:href="#t" transform="matrix(1,0,0,1,713,270) translate(132.28999999999996 302.43999999999994)"/><use xlink:href="#B" transform="matrix(1,0,0,1,713,270) translate(147.82999999999996 302.43999999999994)"/><use xlink:href="#m" transform="matrix(1,0,0,1,713,270) translate(169.84999999999997 302.43999999999994)"/><use xlink:href="#C" transform="matrix(1,0,0,1,713,270) translate(183.34999999999997 302.43999999999994)"/><use xlink:href="#x" transform="matrix(1,0,0,1,713,270) translate(211.84999999999997 302.43999999999994)"/><use xlink:href="#h" transform="matrix(1,0,0,1,713,270) translate(227.38999999999996 302.43999999999994)"/><use xlink:href="#n" transform="matrix(1,0,0,1,713,270) translate(242.92999999999995 302.43999999999994)"/><use xlink:href="#D" transform="matrix(1,0,0,1,713,270) translate(258.46999999999997 302.43999999999994)"/><use xlink:href="#aN" transform="matrix(1,0,0,1,713,270) translate(18 318.4177777777777)"/><use xlink:href="#e" transform="matrix(1,0,0,1,713,270) translate(0 337.1066666666666)"/><use xlink:href="#F" transform="matrix(1,0,0,1,713,270) translate(72.01 337.1066666666666)"/><use xlink:href="#G" transform="matrix(1,0,0,1,713,270) translate(96.63 337.1066666666666)"/><use xlink:href="#H" transform="matrix(1,0,0,1,713,270) translate(121.86999999999999 337.1066666666666)"/><use xlink:href="#I" transform="matrix(1,0,0,1,713,270) translate(137.41 337.1066666666666)"/><use xlink:href="#J" transform="matrix(1,0,0,1,713,270) translate(0 361.1066666666666)"/></g><path d="M708 691a6 6 0 0 1 6-6h438a6 6 0 0 1 6 6v238a6 6 0 0 1-6 6H714a6 6 0 0 1-6-6z" stroke="#000" stroke-opacity="0" fill="#fff" fill-opacity="0"/><g><use xlink:href="#K" transform="matrix(1,0,0,1,713,689.9999999999999) translate(0 14.439999999999998)"/><use xlink:href="#L" transform="matrix(1,0,0,1,713,689.9999999999999) translate(108.01 14.439999999999998)"/><use xlink:href="#aO" transform="matrix(1,0,0,1,713,689.9999999999999) translate(36.01 38.44)"/><use xlink:href="#aP" transform="matrix(1,0,0,1,713,689.9999999999999) translate(56.23 38.44)"/><use xlink:href="#N" transform="matrix(1,0,0,1,713,689.9999999999999) translate(80.85 38.44)"/><use xlink:href="#aQ" transform="matrix(1,0,0,1,713,689.9999999999999) translate(94.35 38.44)"/><use xlink:href="#R" transform="matrix(1,0,0,1,713,689.9999999999999) translate(115.47 38.44)"/><use xlink:href="#aR" transform="matrix(1,0,0,1,713,689.9999999999999) translate(158.60999999999999 38.44)"/><use xlink:href="#aR" transform="matrix(1,0,0,1,713,689.9999999999999) translate(189.42999999999998 38.44)"/><use xlink:href="#T" transform="matrix(1,0,0,1,713,689.9999999999999) translate(220.24999999999997 38.44)"/><use xlink:href="#aS" transform="matrix(1,0,0,1,713,689.9999999999999) translate(36 62.43999999999999)"/><use xlink:href="#aS" transform="matrix(1,0,0,1,713,689.9999999999999) translate(36 86.43999999999998)"/><use xlink:href="#aS" transform="matrix(1,0,0,1,713,689.9999999999999) translate(36 110.43999999999998)"/><use xlink:href="#aT" transform="matrix(1,0,0,1,713,689.9999999999999) translate(36 134.44)"/><use xlink:href="#aP" transform="matrix(1,0,0,1,713,689.9999999999999) translate(57.12 134.44)"/><use xlink:href="#aU" transform="matrix(1,0,0,1,713,689.9999999999999) translate(81.74 134.44)"/><use xlink:href="#aQ" transform="matrix(1,0,0,1,713,689.9999999999999) translate(97.28 134.44)"/><use xlink:href="#R" transform="matrix(1,0,0,1,713,689.9999999999999) translate(118.4 134.44)"/><use xlink:href="#aV" transform="matrix(1,0,0,1,713,689.9999999999999) translate(161.54 134.44)"/><use xlink:href="#aR" transform="matrix(1,0,0,1,713,689.9999999999999) translate(192.82 134.44)"/><use xlink:href="#T" transform="matrix(1,0,0,1,713,689.9999999999999) translate(223.64 134.44)"/><use xlink:href="#aW" transform="matrix(1,0,0,1,713,689.9999999999999) translate(36 158.43999999999997)"/><use xlink:href="#aX" transform="matrix(1,0,0,1,713,689.9999999999999) translate(49.5 158.43999999999997)"/><use xlink:href="#aU" transform="matrix(1,0,0,1,713,689.9999999999999) translate(75.19999999999999 158.43999999999997)"/><use xlink:href="#aY" transform="matrix(1,0,0,1,713,689.9999999999999) translate(90.73999999999998 158.43999999999997)"/><use xlink:href="#R" transform="matrix(1,0,0,1,713,689.9999999999999) translate(121.55999999999997 158.43999999999997)"/><use xlink:href="#aZ" transform="matrix(1,0,0,1,713,689.9999999999999) translate(164.69999999999996 158.43999999999997)"/><use xlink:href="#ba" transform="matrix(1,0,0,1,713,689.9999999999999) translate(196.35999999999996 158.43999999999997)"/><use xlink:href="#bb" transform="matrix(1,0,0,1,713,689.9999999999999) translate(218.37999999999994 158.43999999999997)"/><use xlink:href="#bc" transform="matrix(1,0,0,1,713,689.9999999999999) translate(250.03999999999994 158.43999999999997)"/><use xlink:href="#bd" transform="matrix(1,0,0,1,713,689.9999999999999) translate(280.23999999999995 158.43999999999997)"/><use xlink:href="#be" transform="matrix(1,0,0,1,713,689.9999999999999) translate(320.13999999999993 158.43999999999997)"/><use xlink:href="#aW" transform="matrix(1,0,0,1,713,689.9999999999999) translate(36 182.43999999999997)"/><use xlink:href="#aX" transform="matrix(1,0,0,1,713,689.9999999999999) translate(49.5 182.43999999999997)"/><use xlink:href="#N" transform="matrix(1,0,0,1,713,689.9999999999999) translate(75.19999999999999 182.43999999999997)"/><use xlink:href="#aY" transform="matrix(1,0,0,1,713,689.9999999999999) translate(88.69999999999999 182.43999999999997)"/><use xlink:href="#R" transform="matrix(1,0,0,1,713,689.9999999999999) translate(119.51999999999998 182.43999999999997)"/><use xlink:href="#bf" transform="matrix(1,0,0,1,713,689.9999999999999) translate(162.65999999999997 182.43999999999997)"/><use xlink:href="#bg" transform="matrix(1,0,0,1,713,689.9999999999999) translate(183.77999999999997 182.43999999999997)"/><use xlink:href="#bh" transform="matrix(1,0,0,1,713,689.9999999999999) translate(205.79999999999995 182.43999999999997)"/><use xlink:href="#bi" transform="matrix(1,0,0,1,713,689.9999999999999) translate(226.91999999999996 182.43999999999997)"/><use xlink:href="#aR" transform="matrix(1,0,0,1,713,689.9999999999999) translate(248.03999999999996 182.43999999999997)"/><use xlink:href="#bj" transform="matrix(1,0,0,1,713,689.9999999999999) translate(278.85999999999996 182.43999999999997)"/><use xlink:href="#aW" transform="matrix(1,0,0,1,713,689.9999999999999) translate(36 206.43999999999997)"/><use xlink:href="#aX" transform="matrix(1,0,0,1,713,689.9999999999999) translate(49.5 206.43999999999997)"/><use xlink:href="#V" transform="matrix(1,0,0,1,713,689.9999999999999) translate(75.19999999999999 206.43999999999997)"/><use xlink:href="#aY" transform="matrix(1,0,0,1,713,689.9999999999999) translate(90.73999999999998 206.43999999999997)"/><use xlink:href="#R" transform="matrix(1,0,0,1,713,689.9999999999999) translate(121.55999999999997 206.43999999999997)"/><use xlink:href="#bk" transform="matrix(1,0,0,1,713,689.9999999999999) translate(164.69999999999996 206.43999999999997)"/><use xlink:href="#ba" transform="matrix(1,0,0,1,713,689.9999999999999) translate(206.51999999999995 206.43999999999997)"/><use xlink:href="#bl" transform="matrix(1,0,0,1,713,689.9999999999999) translate(228.53999999999996 206.43999999999997)"/><use xlink:href="#P" transform="matrix(1,0,0,1,713,689.9999999999999) translate(254.43999999999997 206.43999999999997)"/><use xlink:href="#bm" transform="matrix(1,0,0,1,713,689.9999999999999) translate(269.97999999999996 206.43999999999997)"/><use xlink:href="#bn" transform="matrix(1,0,0,1,713,689.9999999999999) translate(306.21999999999997 206.43999999999997)"/><use xlink:href="#X" transform="matrix(1,0,0,1,713,689.9999999999999) translate(317.26 206.43999999999997)"/><use xlink:href="#bo" transform="matrix(1,0,0,1,713,689.9999999999999) translate(332.8 206.43999999999997)"/><use xlink:href="#bp" transform="matrix(1,0,0,1,713,689.9999999999999) translate(356.84000000000003 206.43999999999997)"/><use xlink:href="#bq" transform="matrix(1,0,0,1,713,689.9999999999999) translate(410.76000000000005 206.43999999999997)"/><use xlink:href="#br" transform="matrix(1,0,0,1,713,689.9999999999999) translate(36 230.43999999999997)"/><use xlink:href="#Z" transform="matrix(1,0,0,1,713,689.9999999999999) translate(110.25999999999999 230.43999999999997)"/><use xlink:href="#aU" transform="matrix(1,0,0,1,713,689.9999999999999) translate(147.83999999999997 230.43999999999997)"/><use xlink:href="#ab" transform="matrix(1,0,0,1,713,689.9999999999999) translate(163.37999999999997 230.43999999999997)"/><use xlink:href="#V" transform="matrix(1,0,0,1,713,689.9999999999999) translate(185.39999999999998 230.43999999999997)"/><use xlink:href="#aa" transform="matrix(1,0,0,1,713,689.9999999999999) translate(200.93999999999997 230.43999999999997)"/><use xlink:href="#bn" transform="matrix(1,0,0,1,713,689.9999999999999) translate(232.65999999999997 230.43999999999997)"/><use xlink:href="#X" transform="matrix(1,0,0,1,713,689.9999999999999) translate(243.69999999999996 230.43999999999997)"/><use xlink:href="#P" transform="matrix(1,0,0,1,713,689.9999999999999) translate(259.23999999999995 230.43999999999997)"/><use xlink:href="#ac" transform="matrix(1,0,0,1,713,689.9999999999999) translate(274.78 230.43999999999997)"/></g><path d="M240 246a6 6 0 0 1 6-6h398a6 6 0 0 1 6 6v126a6 6 0 0 1-6 6H246a6 6 0 0 1-6-6z" stroke="#979ea8" stroke-width="4" fill="#f5f9ff"/><path d="M282.5 182a6 6 0 0 1 6-6h328a6 6 0 0 1 6 6v51.33a6 6 0 0 1-6 6h-328a6 6 0 0 1-6-6z" stroke="#000" stroke-opacity="0" fill="#fff" fill-opacity="0"/><g><use xlink:href="#bs" transform="matrix(1,0,0,1,287.4999999999999,181) translate(26.53395061728395 33.236111111111114)"/><use xlink:href="#bt" transform="matrix(1,0,0,1,287.4999999999999,181) translate(159.42283950617283 33.236111111111114)"/></g><path d="M377.67 222c10.12 0 18.33 8.2 18.33 18.33 0 10.13-8.2 18.34-18.33 18.34H274.33c-10.12 0-18.33-8.2-18.33-18.34 0-10.12 8.2-18.33 18.33-18.33z" stroke="#979ea8" stroke-width="4" fill="#bad8ff"/><g><use xlink:href="#b" transform="matrix(1,0,0,1,261,227) translate(12.833333333333343 17.6875)"/><use xlink:href="#c" transform="matrix(1,0,0,1,261,227) translate(72.72222222222221 17.6875)"/></g><path d="M240 414a6 6 0 0 1 6-6h398a6 6 0 0 1 6 6v63a6 6 0 0 1-6 6H246a6 6 0 0 1-6-6z" stroke="#979ea8" stroke-width="4" fill="#ffcfcf"/><path d="M377.67 390c10.12 0 18.33 8.2 18.33 18.33 0 10.13-8.2 18.34-18.33 18.34H274.33c-10.12 0-18.33-8.2-18.33-18.34 0-10.12 8.2-18.33 18.33-18.33z" stroke="#979ea8" stroke-width="4" fill="#ffdda6"/><g><use xlink:href="#b" transform="matrix(1,0,0,1,261,395) translate(5.055555555555571 17.6875)"/><use xlink:href="#d" transform="matrix(1,0,0,1,261,395) translate(64.94444444444444 17.6875)"/></g><path d="M260 271a6 6 0 0 1 6-6h348a6 6 0 0 1 6 6v113a6 6 0 0 1-6 6H266a6 6 0 0 1-6-6z" stroke="#000" stroke-opacity="0" fill="#fff" fill-opacity="0"/><g><use xlink:href="#e" transform="matrix(1,0,0,1,265,270) translate(0 14.439999999999994)"/><use xlink:href="#f" transform="matrix(1,0,0,1,265,270) translate(72.01 14.439999999999994)"/><use xlink:href="#g" transform="matrix(1,0,0,1,265,270) translate(87.55 14.439999999999994)"/><use xlink:href="#h" transform="matrix(1,0,0,1,265,270) translate(103.08999999999999 14.439999999999994)"/><use xlink:href="#i" transform="matrix(1,0,0,1,265,270) translate(118.62999999999998 14.439999999999994)"/><use xlink:href="#j" transform="matrix(1,0,0,1,265,270) translate(0 38.43999999999998)"/><use xlink:href="#k" transform="matrix(1,0,0,1,265,270) translate(108.01 38.43999999999998)"/><use xlink:href="#z" transform="matrix(1,0,0,1,265,270) translate(36.01 62.43999999999998)"/><use xlink:href="#A" transform="matrix(1,0,0,1,265,270) translate(110.26999999999998 62.43999999999998)"/><use xlink:href="#t" transform="matrix(1,0,0,1,265,270) translate(132.28999999999996 62.43999999999998)"/><use xlink:href="#B" transform="matrix(1,0,0,1,265,270) translate(147.82999999999996 62.43999999999998)"/><use xlink:href="#m" transform="matrix(1,0,0,1,265,270) translate(169.84999999999997 62.43999999999998)"/><use xlink:href="#C" transform="matrix(1,0,0,1,265,270) translate(183.34999999999997 62.43999999999998)"/><use xlink:href="#x" transform="matrix(1,0,0,1,265,270) translate(211.84999999999997 62.43999999999998)"/><use xlink:href="#h" transform="matrix(1,0,0,1,265,270) translate(227.38999999999996 62.43999999999998)"/><use xlink:href="#n" transform="matrix(1,0,0,1,265,270) translate(242.92999999999995 62.43999999999998)"/><use xlink:href="#D" transform="matrix(1,0,0,1,265,270) translate(258.46999999999997 62.43999999999998)"/><use xlink:href="#E" transform="matrix(1,0,0,1,265,270) translate(0 78.41777777777774)"/><use xlink:href="#e" transform="matrix(1,0,0,1,265,270) translate(0 97.10666666666663)"/><use xlink:href="#F" transform="matrix(1,0,0,1,265,270) translate(72.01 97.10666666666663)"/><use xlink:href="#G" transform="matrix(1,0,0,1,265,270) translate(96.63 97.10666666666663)"/><use xlink:href="#H" transform="matrix(1,0,0,1,265,270) translate(121.86999999999999 97.10666666666663)"/><use xlink:href="#bu" transform="matrix(1,0,0,1,265,270) translate(137.41 97.10666666666663)"/></g><path d="M260 436a6 6 0 0 1 6-6h350.5a6 6 0 0 1 6 6v43a6 6 0 0 1-6 6H266a6 6 0 0 1-6-6z" stroke="#000" stroke-opacity="0" fill="#fff" fill-opacity="0"/><g><use xlink:href="#K" transform="matrix(1,0,0,1,264.9999999999999,435) translate(0 14.439999999999998)"/><use xlink:href="#L" transform="matrix(1,0,0,1,264.9999999999999,435) translate(108.01 14.439999999999998)"/><use xlink:href="#Y" transform="matrix(1,0,0,1,264.9999999999999,435) translate(36.01 38.44)"/><use xlink:href="#bv" transform="matrix(1,0,0,1,264.9999999999999,435) translate(110.26999999999998 38.44)"/><use xlink:href="#N" transform="matrix(1,0,0,1,264.9999999999999,435) translate(141.36999999999998 38.44)"/><use xlink:href="#ab" transform="matrix(1,0,0,1,264.9999999999999,435) translate(154.86999999999998 38.44)"/><use xlink:href="#V" transform="matrix(1,0,0,1,264.9999999999999,435) translate(176.89 38.44)"/><use xlink:href="#bw" transform="matrix(1,0,0,1,264.9999999999999,435) translate(192.42999999999998 38.44)"/><use xlink:href="#N" transform="matrix(1,0,0,1,264.9999999999999,435) translate(224.14999999999998 38.44)"/><use xlink:href="#ba" transform="matrix(1,0,0,1,264.9999999999999,435) translate(237.64999999999998 38.44)"/><use xlink:href="#P" transform="matrix(1,0,0,1,264.9999999999999,435) translate(259.66999999999996 38.44)"/><use xlink:href="#bx" transform="matrix(1,0,0,1,264.9999999999999,435) translate(275.21 38.44)"/></g><defs><path d="M67-125c0 53 21 87 73 88 37 1 54-22 65-47l45 17C233-25 199 4 140 4 58 4 20-42 15-125 8-235 124-281 211-232c18 10 29 29 36 50l-46 12c-8-25-30-41-62-41-52 0-71 34-72 86" id="by"/><path d="M114-157C55-157 80-60 75 0H25v-261h50l-1 109c12-26 28-41 61-42 86-1 58 113 63 194h-50c-7-57 23-157-34-157" id="bz"/><path d="M133-34C117-15 103 5 69 4 32 3 11-16 11-54c-1-60 55-63 116-61 1-26-3-47-28-47-18 1-26 9-28 27l-52-2c7-38 36-58 82-57s74 22 75 68l1 82c-1 14 12 18 25 15v27c-30 8-71 5-69-32zm-48 3c29 0 43-24 42-57-32 0-66-3-65 30 0 17 8 27 23 27" id="bA"/><path d="M25-224v-37h50v37H25zM25 0v-190h50V0H25" id="bB"/><path d="M135-194c87-1 58 113 63 194h-50c-7-57 23-157-34-157-59 0-34 97-39 157H25l-1-190h47c2 12-1 28 3 38 12-26 28-41 61-42" id="bC"/><path d="M14-72v-43h91v43H14" id="bD"/><path d="M110-194c64 0 96 36 96 99 0 64-35 99-97 99-61 0-95-36-95-99 0-62 34-99 96-99zm-1 164c35 0 45-28 45-65 0-40-10-65-43-65-34 0-45 26-45 65 0 36 10 65 43 65" id="bE"/><path d="M121-226c-27-7-43 5-38 36h38v33H83V0H34v-157H6v-33h28c-9-59 32-81 87-68v32" id="bF"/><path d="M136-208V0H84v-208H4v-40h212v40h-80" id="bG"/><path d="M85 4C-2 5 27-109 22-190h50c7 57-23 150 33 157 60-5 35-97 40-157h50l1 190h-47c-2-12 1-28-3-38-12 25-28 42-61 42" id="bH"/><path d="M195-6C206 82 75 100 31 46c-4-6-6-13-8-21l49-6c3 16 16 24 34 25 40 0 42-37 40-79-11 22-30 35-61 35-53 0-70-43-70-97 0-56 18-96 73-97 30 0 46 14 59 34l2-30h47zm-90-29c32 0 41-27 41-63 0-35-9-62-40-62-32 0-39 29-40 63 0 36 9 62 39 62" id="bI"/><path d="M115-3C79 11 28 4 28-45v-112H4v-33h27l15-45h31v45h36v33H77v99c-1 23 16 31 38 25v30" id="bJ"/><g id="a"><use transform="matrix(0.08024691358024691,0,0,0.08024691358024691,0,0)" xlink:href="#by"/><use transform="matrix(0.08024691358024691,0,0,0.08024691358024691,20.78395061728395,0)" xlink:href="#bz"/><use transform="matrix(0.08024691358024691,0,0,0.08024691358024691,38.358024691358025,0)" xlink:href="#bA"/><use transform="matrix(0.08024691358024691,0,0,0.08024691358024691,54.407407407407405,0)" xlink:href="#bB"/><use transform="matrix(0.08024691358024691,0,0,0.08024691358024691,62.432098765432094,0)" xlink:href="#bC"/><use transform="matrix(0.08024691358024691,0,0,0.08024691358024691,80.00617283950616,0)" xlink:href="#bD"/><use transform="matrix(0.08024691358024691,0,0,0.08024691358024691,89.55555555555556,0)" xlink:href="#bE"/><use transform="matrix(0.08024691358024691,0,0,0.08024691358024691,107.12962962962962,0)" xlink:href="#bF"/><use transform="matrix(0.08024691358024691,0,0,0.08024691358024691,116.67901234567901,0)" xlink:href="#bD"/><use transform="matrix(0.08024691358024691,0,0,0.08024691358024691,126.22839506172836,0)" xlink:href="#bG"/><use transform="matrix(0.08024691358024691,0,0,0.08024691358024691,143.80246913580245,0)" xlink:href="#bz"/><use transform="matrix(0.08024691358024691,0,0,0.08024691358024691,161.37654320987653,0)" xlink:href="#bE"/><use transform="matrix(0.08024691358024691,0,0,0.08024691358024691,178.9506172839506,0)" xlink:href="#bH"/><use transform="matrix(0.08024691358024691,0,0,0.08024691358024691,196.52469135802468,0)" xlink:href="#bI"/><use transform="matrix(0.08024691358024691,0,0,0.08024691358024691,214.09876543209876,0)" xlink:href="#bz"/><use transform="matrix(0.08024691358024691,0,0,0.08024691358024691,231.67283950617283,0)" xlink:href="#bJ"/></g><path d="M240 0l2-218c-23 76-54 145-80 218h-23L58-218 59 0H30v-248h44l77 211c21-75 51-140 76-211h43V0h-30" id="bK"/><path d="M100-194c62-1 85 37 85 99 1 63-27 99-86 99S16-35 15-95c0-66 28-99 85-99zM99-20c44 1 53-31 53-75 0-43-8-75-51-75s-53 32-53 75 10 74 51 75" id="bL"/><path d="M85-194c31 0 48 13 60 33l-1-100h32l1 261h-30c-2-10 0-23-3-31C134-8 116 4 85 4 32 4 16-35 15-94c0-66 23-100 70-100zm9 24c-40 0-46 34-46 75 0 40 6 74 45 74 42 0 51-32 51-76 0-42-9-74-50-73" id="bM"/><path d="M100-194c63 0 86 42 84 106H49c0 40 14 67 53 68 26 1 43-12 49-29l28 8c-11 28-37 45-77 45C44 4 14-33 15-96c1-61 26-98 85-98zm52 81c6-60-76-77-97-28-3 7-6 17-6 28h103" id="bN"/><path d="M24 0v-261h32V0H24" id="bO"/><g id="b"><use transform="matrix(0.055555555555555546,0,0,0.055555555555555546,0,0)" xlink:href="#bK"/><use transform="matrix(0.055555555555555546,0,0,0.055555555555555546,16.611111111111107,0)" xlink:href="#bL"/><use transform="matrix(0.055555555555555546,0,0,0.055555555555555546,27.722222222222214,0)" xlink:href="#bM"/><use transform="matrix(0.055555555555555546,0,0,0.055555555555555546,38.83333333333332,0)" xlink:href="#bN"/><use transform="matrix(0.055555555555555546,0,0,0.055555555555555546,49.94444444444443,0)" xlink:href="#bO"/></g><path d="M33 0v-248h34V0H33" id="bP"/><path d="M117-194c89-4 53 116 60 194h-32v-121c0-31-8-49-39-48C34-167 62-67 57 0H25l-1-190h30c1 10-1 24 2 32 11-22 29-35 61-36" id="bQ"/><path d="M115-194c55 1 70 41 70 98S169 2 115 4C84 4 66-9 55-30l1 105H24l-1-265h31l2 30c10-21 28-34 59-34zm-8 174c40 0 45-34 45-75s-6-73-45-74c-42 0-51 32-51 76 0 43 10 73 51 73" id="bR"/><path d="M84 4C-5 8 30-112 23-190h32v120c0 31 7 50 39 49 72-2 45-101 50-169h31l1 190h-30c-1-10 1-25-2-33-11 22-28 36-60 37" id="bS"/><path d="M59-47c-2 24 18 29 38 22v24C64 9 27 4 27-40v-127H5v-23h24l9-43h21v43h35v23H59v120" id="bT"/><g id="c"><use transform="matrix(0.055555555555555546,0,0,0.055555555555555546,0,0)" xlink:href="#bP"/><use transform="matrix(0.055555555555555546,0,0,0.055555555555555546,5.5555555555555545,0)" xlink:href="#bQ"/><use transform="matrix(0.055555555555555546,0,0,0.055555555555555546,16.666666666666664,0)" xlink:href="#bR"/><use transform="matrix(0.055555555555555546,0,0,0.055555555555555546,27.77777777777777,0)" xlink:href="#bS"/><use transform="matrix(0.055555555555555546,0,0,0.055555555555555546,38.88888888888888,0)" xlink:href="#bT"/></g><path d="M140-251c81 0 123 46 123 126C263-46 219 4 140 4 59 4 17-45 17-125s42-126 123-126zm0 227c63 0 89-41 89-101s-29-99-89-99c-61 0-89 39-89 99S79-25 140-24" id="bU"/><g id="d"><use transform="matrix(0.055555555555555546,0,0,0.055555555555555546,0,0)" xlink:href="#bU"/><use transform="matrix(0.055555555555555546,0,0,0.055555555555555546,15.555555555555554,0)" xlink:href="#bS"/><use transform="matrix(0.055555555555555546,0,0,0.055555555555555546,26.666666666666664,0)" xlink:href="#bT"/><use transform="matrix(0.055555555555555546,0,0,0.055555555555555546,32.22222222222222,0)" xlink:href="#bR"/><use transform="matrix(0.055555555555555546,0,0,0.055555555555555546,43.33333333333333,0)" xlink:href="#bS"/><use transform="matrix(0.055555555555555546,0,0,0.055555555555555546,54.444444444444436,0)" xlink:href="#bT"/></g><path d="M451-39c166 0 259-83 244-273-6-88 17-281-26-315-17-13-33-18-79-20v-20h252v20c-37 2-58 8-75 24-20 20-23 32-23 117 0 86 6 257-7 317C710-67 593 17 428 17 308 17 218-22 163-97c-37-51-46-91-46-206v-230c0-105-7-114-92-115v-19h276v20c-38-1-66 6-79 21-15 16-16 18-16 94 0 94-8 251 6 325C232-99 321-39 451-39" id="bV"/><path d="M177 13c-22 0-50-8-77-15-8 0-12 4-17 14H66L55-108h17C80-46 120-6 173-6c42 0 76-32 76-72 0-36-26-67-98-115-82-55-97-74-97-122 0-103 127-148 223-105l3 99h-19c-9-55-42-90-85-90-37 0-66 27-66 61 0 35 18 55 84 97 73 46 116 60 116 144 0 69-58 122-133 122" id="bW"/><path d="M418-98C381-53 308 13 227 13 122 13 40-83 40-207c0-115 76-230 209-230 86 0 128 35 154 107 7 19 24 23 21 50H111C88-151 163-39 270-40c54 0 95-22 136-71zM114-300h220c-11-70-54-116-108-116-53 0-93 41-112 116" id="bX"/><path d="M246-368c-33 0-65 69-75 81v153c0 81 0 81 10 94 8 24 62 20 101 20V0H29v-20c23 1 46-9 58-23 11-14 13-25 13-90v-216l-71-26v-18l121-43h21v113c33-45 66-139 141-98 9 5 32 10 55 16l-26 65c-22 0-70-28-95-28" id="bY"/><path d="M139-335c-32 0-55-22-55-51s24-50 55-50c33 0 56 21 56 50 0 30-23 51-56 51zM84-39c0-28 24-50 55-50 33 0 56 22 56 51 0 30-23 51-56 51-32 0-55-22-55-52" id="bZ"/><g id="e"><use transform="matrix(0.019999999999999993,0,0,0.019999999999999993,0,0)" xlink:href="#bV"/><use transform="matrix(0.019999999999999993,0,0,0.019999999999999993,16.679999999999996,0)" xlink:href="#bW"/><use transform="matrix(0.019999999999999993,0,0,0.019999999999999993,23.559999999999995,0)" xlink:href="#bX"/><use transform="matrix(0.019999999999999993,0,0,0.019999999999999993,32.41999999999999,0)" xlink:href="#bY"/><use transform="matrix(0.019999999999999993,0,0,0.019999999999999993,39.579999999999984,0)" xlink:href="#bZ"/></g><path d="M54-161c0-75 52-134 156-176C109-382 63-437 63-510c0-95 89-174 197-174 107 0 193 69 193 155 0 68-46 119-140 157 112 50 160 107 160 190 0 111-92 197-211 197C146 15 54-63 54-161zm243-221c56-30 91-88 91-149 0-77-55-134-129-134-75 0-133 54-133 121 0 79 109 136 171 162zm-66 55c-68 31-110 95-109 163C122-72 183-4 263-4s142-65 142-148c0-92-100-139-174-175" id="ca"/><use transform="matrix(0.019999999999999993,0,0,0.019999999999999993,0,0)" xlink:href="#ca" id="f"/><path d="M58-265c0-198 138-358 359-419l12 16c-167 68-255 172-279 331 58-45 99-62 151-62 105 0 190 88 190 197 0 119-95 217-210 217C150 15 58-101 58-265zm80 22C138-96 194-4 284-4c78 0 127-72 127-187 0-110-50-183-126-183-40 0-86 21-142 65-3 19-5 36-5 66" id="cb"/><use transform="matrix(0.019999999999999993,0,0,0.019999999999999993,0,0)" xlink:href="#cb" id="g"/><path d="M39-195v-24l316-465h30v436h108v53H385V15h-71v-210H39zm50-53h225v-333" id="cc"/><use transform="matrix(0.019999999999999993,0,0,0.019999999999999993,0,0)" xlink:href="#cc" id="h"/><use transform="matrix(0.019999999999999993,0,0,0.019999999999999993,0,0)" xlink:href="#cc" id="i"/><path d="M146-59c4 37 46 38 104 39V0H3v-20c68-2 82-15 115-106l196-534-10-24h93l205 544C641-35 651-20 719-20V0H424v-20c116-3 129-5 96-92l-69-184H229c-21 64-68 178-83 237zm102-284h186l-95-251" id="cd"/><path d="M136-604c-28 0-47-17-47-42 0-23 20-40 47-40s47 17 47 41-20 41-47 41zM18-20c77-11 89-9 89-105v-179c0-56 0-55-56-67l-27-6v-17l139-48h15v317c0 62 1 68 13 83 12 14 26 19 64 22V0H18v-20" id="ce"/><path d="M103-41C88-65 87-77 87-154v-224H38v-17c40-19 81-73 102-136h18v106h153l-17 47H158v199c0 77 2 91 16 109 41 51 89 42 121-21l17 15C277 22 157 46 103-41" id="cf"/><path d="M255-52c-39 28-89 75-129 65-56 0-95-36-95-88 0-54 33-80 126-105 41-11 68-23 96-41v-85c7-65-33-99-79-99-38 0-82 36-60 72l-73 36c-23-58 109-139 155-139 43 0 88 24 112 56 34 46 3 251 20 323 3 12 12 18 25 18 16 0 29-6 52-23l5 15c-40 36-83 60-106 60-30 0-47-23-49-65zm-92 27c14 8 60-30 90-47v-128c-19 11-32 17-93 42-43 18-60 38-60 70 0 35 28 63 63 63" id="cg"/><path d="M313-387c-24-9-119 47-142 64v189c0 81 1 80 10 94 10 15 27 20 62 20V0H28v-20c24 1 47-9 59-23 23-29 13-170 13-231 0-106 10-71-69-100v-16l124-46h16v93c77-55 147-87 189-87 146 0 113 207 103 365-2 38 28 47 84 45V0H316v-20c46-4 61-12 70-36 8-21 14-117 14-209 0-77-24-117-87-122" id="ch"/><g id="j"><use transform="matrix(0.019999999999999993,0,0,0.019999999999999993,0,0)" xlink:href="#cd"/><use transform="matrix(0.019999999999999993,0,0,0.019999999999999993,14.539999999999996,0)" xlink:href="#bW"/><use transform="matrix(0.019999999999999993,0,0,0.019999999999999993,21.319999999999993,0)" xlink:href="#bW"/><use transform="matrix(0.019999999999999993,0,0,0.019999999999999993,28.199999999999992,0)" xlink:href="#ce"/><use transform="matrix(0.019999999999999993,0,0,0.019999999999999993,33.77999999999999,0)" xlink:href="#bW"/><use transform="matrix(0.019999999999999993,0,0,0.019999999999999993,40.47999999999998,0)" xlink:href="#cf"/><use transform="matrix(0.019999999999999993,0,0,0.019999999999999993,47.23999999999999,0)" xlink:href="#cg"/><use transform="matrix(0.019999999999999993,0,0,0.019999999999999993,55.51999999999998,0)" xlink:href="#ch"/><use transform="matrix(0.019999999999999993,0,0,0.019999999999999993,66.39999999999998,0)" xlink:href="#cf"/><use transform="matrix(0.019999999999999993,0,0,0.019999999999999993,72.77999999999997,0)" xlink:href="#bZ"/></g><use transform="matrix(0.019999999999999993,0,0,0.019999999999999993,0,0)" xlink:href="#ca" id="l"/><path d="M35-175v-72h350v72H35" id="ci"/><use transform="matrix(0.019999999999999993,0,0,0.019999999999999993,0,0)" xlink:href="#ci" id="m"/><path d="M43-398v-33h440v33H43zm0 147v-33h440v33H43" id="cj"/><use transform="matrix(0.019999999999999993,0,0,0.019999999999999993,0,0)" xlink:href="#cj" id="n"/><path d="M351-66c106 1 94-15 114-85h17L461 0H33v-17c31-40 80-92 197-209 98-98 144-179 144-253 0-81-62-144-142-144-76 0-144 58-169 145H46c14-123 101-206 217-206 113 0 198 81 198 189 0 50-18 101-51 142-24 30-25 29-118 107-80 66-92 79-191 180h250" id="ck"/><use transform="matrix(0.019999999999999993,0,0,0.019999999999999993,0,0)" xlink:href="#ck" id="o"/><path d="M270 231C182 136 78-53 78-237c0-176 102-371 192-469l30 26c-80 91-163 265-163 443 0 170 82 350 163 442" id="cl"/><path d="M11 0v-20c35 1 61-6 75-22 14-15 14-16 14-95v-434c0-65 0-65-6-72-6-10-55-12-75-16v-18l136-44h16c2 216-4 455 3 664 8 28 34 38 78 37V0H11" id="cm"/><path d="M412-619c-32-21-91-55-126-55-46 0-86 31-104 74-12 27-14 91-14 175h109l7 47H168v250c0 68 2 81 15 93 12 16 69 16 106 15V0H24v-20c28 1 54-5 62-17 10-14 11-25 11-96v-245H18v-18c27-6 58-17 79-29 1-92 16-140 57-193 52-65 118-104 178-104 47 0 111 29 111 50 0 15-22 53-31 53" id="cn"/><g id="p"><use transform="matrix(0.019999999999999993,0,0,0.019999999999999993,0,0)" xlink:href="#cl"/><use transform="matrix(0.019999999999999993,0,0,0.019999999999999993,6.479999999999998,0)" xlink:href="#cm"/><use transform="matrix(0.019999999999999993,0,0,0.019999999999999993,11.499999999999996,0)" xlink:href="#bX"/><use transform="matrix(0.019999999999999993,0,0,0.019999999999999993,20.359999999999992,0)" xlink:href="#cn"/><use transform="matrix(0.019999999999999993,0,0,0.019999999999999993,26.179999999999993,0)" xlink:href="#cf"/><use transform="matrix(0.019999999999999993,0,0,0.019999999999999993,32.55999999999999,0)" xlink:href="#bZ"/></g><path d="M174 32c0-33-20-18-44-18-25 0-45-22-45-49 0-30 25-54 58-54 43 0 75 38 75 90 0 66-49 130-119 158l-7-20c52-30 82-69 82-107" id="co"/><g id="q"><use transform="matrix(0.019999999999999993,0,0,0.019999999999999993,0,0)" xlink:href="#cc"/><use transform="matrix(0.019999999999999993,0,0,0.019999999999999993,10.539999999999997,0)" xlink:href="#co"/></g><path d="M25 205c79-91 163-265 163-442 0-171-82-350-163-443l30-26c87 96 192 284 192 469 0 175-104 370-192 468" id="cp"/><g id="r"><use transform="matrix(0.019999999999999993,0,0,0.019999999999999993,0,0)" xlink:href="#ck"/><use transform="matrix(0.019999999999999993,0,0,0.019999999999999993,10.539999999999997,0)" xlink:href="#cp"/></g><use transform="matrix(0.019999999999999993,0,0,0.019999999999999993,0,0)" xlink:href="#cc" id="s"/><path d="M247-131v-194H43v-33h204v-194h33v194h203v33H280v194h-33" id="cq"/><use transform="matrix(0.019999999999999993,0,0,0.019999999999999993,0,0)" xlink:href="#cq" id="t"/><g id="u"><use transform="matrix(0.019999999999999993,0,0,0.019999999999999993,0,0)" xlink:href="#cb"/><use transform="matrix(0.019999999999999993,0,0,0.019999999999999993,10.539999999999997,0)" xlink:href="#co"/></g><g id="v"><use transform="matrix(0.019999999999999993,0,0,0.019999999999999993,0,0)" xlink:href="#cc"/><use transform="matrix(0.019999999999999993,0,0,0.019999999999999993,10.539999999999997,0)" xlink:href="#cp"/></g><use transform="matrix(0.019999999999999993,0,0,0.019999999999999993,0,0)" xlink:href="#cb" id="w"/><path d="M130-244l-27-19 80-170-165-89 9-30 185 23 37-182h32l33 182 185-23 10 30-164 89 81 170-29 19-134-124" id="cr"/><use transform="matrix(0.019999999999999993,0,0,0.019999999999999993,0,0)" xlink:href="#cr" id="x"/><g id="y"><use transform="matrix(0.019999999999999993,0,0,0.019999999999999993,0,0)" xlink:href="#ck"/><use transform="matrix(0.019999999999999993,0,0,0.019999999999999993,10.359999999999996,0)" xlink:href="#cc"/></g><path d="M230 9L86-315c-33-75-43-84-96-90v-20h208v20c-71 9-66 23-41 80L268-75l106-250c-26-62-45-77-105-80v-20h222v20c-72 3-60 35-39 86l99 239 87-213c19-46 24-62 24-75 0-28-14-35-71-37v-20h180v20c-53 7-67 25-107 124L546 9h-30L388-293 260 9h-30" id="cs"/><g id="z"><use transform="matrix(0.019999999999999993,0,0,0.019999999999999993,0,0)" xlink:href="#cd"/><use transform="matrix(0.019999999999999993,0,0,0.019999999999999993,14.539999999999996,0)" xlink:href="#ch"/><use transform="matrix(0.019999999999999993,0,0,0.019999999999999993,25.779999999999998,0)" xlink:href="#bW"/><use transform="matrix(0.019999999999999993,0,0,0.019999999999999993,32.87999999999999,0)" xlink:href="#cs"/><use transform="matrix(0.019999999999999993,0,0,0.019999999999999993,47.65999999999998,0)" xlink:href="#bX"/><use transform="matrix(0.019999999999999993,0,0,0.019999999999999993,56.51999999999998,0)" xlink:href="#bY"/><use transform="matrix(0.019999999999999993,0,0,0.019999999999999993,63.67999999999998,0)" xlink:href="#bZ"/></g><g id="A"><use transform="matrix(0.019999999999999993,0,0,0.019999999999999993,0,0)" xlink:href="#cl"/><use transform="matrix(0.019999999999999993,0,0,0.019999999999999993,6.479999999999998,0)" xlink:href="#cc"/></g><g id="B"><use transform="matrix(0.019999999999999993,0,0,0.019999999999999993,0,0)" xlink:href="#cl"/><use transform="matrix(0.019999999999999993,0,0,0.019999999999999993,6.479999999999998,0)" xlink:href="#ca"/></g><g id="C"><use transform="matrix(0.019999999999999993,0,0,0.019999999999999993,0,0)" xlink:href="#cb"/><use transform="matrix(0.019999999999999993,0,0,0.019999999999999993,10.539999999999997,0)" xlink:href="#cp"/><use transform="matrix(0.019999999999999993,0,0,0.019999999999999993,17.019999999999996,0)" xlink:href="#cp"/></g><path d="M84-39c0-28 24-50 55-50 33 0 56 22 56 51 0 30-23 51-56 51-32 0-55-22-55-52" id="ct"/><g id="D"><use transform="matrix(0.019999999999999993,0,0,0.019999999999999993,0,0)" xlink:href="#ck"/><use transform="matrix(0.019999999999999993,0,0,0.019999999999999993,10.359999999999996,0)" xlink:href="#cc"/><use transform="matrix(0.019999999999999993,0,0,0.019999999999999993,20.89999999999999,0)" xlink:href="#ct"/></g><path d="M140 0v-20h41c57 0 58-1 58-64v-514c-30 27-101 74-134 88l-9-15c52-34 157-128 177-159h37v627c-11 51 58 34 100 37V0H140" id="cu"/><g id="F"><use transform="matrix(0.019999999999999993,0,0,0.019999999999999993,0,0)" xlink:href="#cu"/><use transform="matrix(0.019999999999999993,0,0,0.019999999999999993,9.079999999999998,0)" xlink:href="#cu"/></g><path d="M117-71C-21-248 27-684 263-684c56 0 102 30 146 86C552-417 487 15 263 15c-56 0-103-31-146-86zm146-594c-131 0-143 165-143 327 0 106 13 204 33 252 22 52 63 82 110 82 52 0 93-35 115-95 37-101 37-394-5-485-22-50-63-81-110-81" id="cv"/><g id="G"><use transform="matrix(0.019999999999999993,0,0,0.019999999999999993,0,0)" xlink:href="#cu"/><use transform="matrix(0.019999999999999993,0,0,0.019999999999999993,9.699999999999998,0)" xlink:href="#cv"/></g><path d="M87-86c34-10 101 89 145 76 79 0 147-84 147-181 0-148-165-220-274-131l-10-7 15-341h229c48 0 50 0 57-14h20l-12 83H132l-8 194c153-82 335 30 335 193C459-84 350 15 208 15 121 15 51-15 51-53c0-18 16-33 36-33" id="cw"/><use transform="matrix(0.019999999999999993,0,0,0.019999999999999993,0,0)" xlink:href="#cw" id="H"/><use transform="matrix(0.019999999999999993,0,0,0.019999999999999993,0,0)" xlink:href="#cu" id="I"/><g id="K"><use transform="matrix(0.019999999999999997,0,0,0.019999999999999997,0,0)" xlink:href="#cd"/><use transform="matrix(0.019999999999999997,0,0,0.019999999999999997,14.539999999999997,0)" xlink:href="#bW"/><use transform="matrix(0.019999999999999997,0,0,0.019999999999999997,21.319999999999997,0)" xlink:href="#bW"/><use transform="matrix(0.019999999999999997,0,0,0.019999999999999997,28.199999999999996,0)" xlink:href="#ce"/><use transform="matrix(0.019999999999999997,0,0,0.019999999999999997,33.779999999999994,0)" xlink:href="#bW"/><use transform="matrix(0.019999999999999997,0,0,0.019999999999999997,40.47999999999999,0)" xlink:href="#cf"/><use transform="matrix(0.019999999999999997,0,0,0.019999999999999997,47.239999999999995,0)" xlink:href="#cg"/><use transform="matrix(0.019999999999999997,0,0,0.019999999999999997,55.51999999999999,0)" xlink:href="#ch"/><use transform="matrix(0.019999999999999997,0,0,0.019999999999999997,66.39999999999999,0)" xlink:href="#cf"/><use transform="matrix(0.019999999999999997,0,0,0.019999999999999997,72.77999999999999,0)" xlink:href="#bZ"/></g><g id="M"><use transform="matrix(0.019999999999999997,0,0,0.019999999999999997,0,0)" xlink:href="#cu"/><use transform="matrix(0.019999999999999997,0,0,0.019999999999999997,9.08,0)" xlink:href="#cu"/></g><use transform="matrix(0.019999999999999997,0,0,0.019999999999999997,0,0)" xlink:href="#ci" id="N"/><g id="O"><use transform="matrix(0.019999999999999997,0,0,0.019999999999999997,0,0)" xlink:href="#cu"/><use transform="matrix(0.019999999999999997,0,0,0.019999999999999997,9.7,0)" xlink:href="#cv"/></g><use transform="matrix(0.019999999999999997,0,0,0.019999999999999997,0,0)" xlink:href="#cj" id="P"/><use transform="matrix(0.019999999999999997,0,0,0.019999999999999997,0,0)" xlink:href="#cu" id="Q"/><g id="R"><use transform="matrix(0.019999999999999997,0,0,0.019999999999999997,0,0)" xlink:href="#cl"/><use transform="matrix(0.019999999999999997,0,0,0.019999999999999997,6.479999999999999,0)" xlink:href="#cm"/><use transform="matrix(0.019999999999999997,0,0,0.019999999999999997,11.499999999999996,0)" xlink:href="#bX"/><use transform="matrix(0.019999999999999997,0,0,0.019999999999999997,20.359999999999992,0)" xlink:href="#cn"/><use transform="matrix(0.019999999999999997,0,0,0.019999999999999997,26.179999999999993,0)" xlink:href="#cf"/><use transform="matrix(0.019999999999999997,0,0,0.019999999999999997,32.55999999999999,0)" xlink:href="#bZ"/></g><g id="S"><use transform="matrix(0.019999999999999997,0,0,0.019999999999999997,0,0)" xlink:href="#cu"/><use transform="matrix(0.019999999999999997,0,0,0.019999999999999997,10.54,0)" xlink:href="#co"/></g><g id="T"><use transform="matrix(0.019999999999999997,0,0,0.019999999999999997,0,0)" xlink:href="#cw"/><use transform="matrix(0.019999999999999997,0,0,0.019999999999999997,10.54,0)" xlink:href="#cp"/></g><use transform="matrix(0.019999999999999997,0,0,0.019999999999999997,0,0)" xlink:href="#cu" id="U"/><use transform="matrix(0.019999999999999997,0,0,0.019999999999999997,0,0)" xlink:href="#cr" id="V"/><use transform="matrix(0.019999999999999997,0,0,0.019999999999999997,0,0)" xlink:href="#cw" id="W"/><use transform="matrix(0.019999999999999997,0,0,0.019999999999999997,0,0)" xlink:href="#cw" id="X"/><g id="Y"><use transform="matrix(0.019999999999999997,0,0,0.019999999999999997,0,0)" xlink:href="#cd"/><use transform="matrix(0.019999999999999997,0,0,0.019999999999999997,14.539999999999997,0)" xlink:href="#ch"/><use transform="matrix(0.019999999999999997,0,0,0.019999999999999997,25.779999999999998,0)" xlink:href="#bW"/><use transform="matrix(0.019999999999999997,0,0,0.019999999999999997,32.879999999999995,0)" xlink:href="#cs"/><use transform="matrix(0.019999999999999997,0,0,0.019999999999999997,47.65999999999999,0)" xlink:href="#bX"/><use transform="matrix(0.019999999999999997,0,0,0.019999999999999997,56.52,0)" xlink:href="#bY"/><use transform="matrix(0.019999999999999997,0,0,0.019999999999999997,63.67999999999999,0)" xlink:href="#bZ"/></g><g id="Z"><use transform="matrix(0.019999999999999997,0,0,0.019999999999999997,0,0)" xlink:href="#cl"/><use transform="matrix(0.019999999999999997,0,0,0.019999999999999997,6.479999999999999,0)" xlink:href="#cl"/><use transform="matrix(0.019999999999999997,0,0,0.019999999999999997,12.959999999999997,0)" xlink:href="#cu"/><use transform="matrix(0.019999999999999997,0,0,0.019999999999999997,22.040000000000003,0)" xlink:href="#cu"/></g><g id="aa"><use transform="matrix(0.019999999999999997,0,0,0.019999999999999997,0,0)" xlink:href="#cu"/><use transform="matrix(0.019999999999999997,0,0,0.019999999999999997,9.7,0)" xlink:href="#cv"/><use transform="matrix(0.019999999999999997,0,0,0.019999999999999997,20.24,0)" xlink:href="#cp"/></g><g id="ab"><use transform="matrix(0.019999999999999997,0,0,0.019999999999999997,0,0)" xlink:href="#cu"/><use transform="matrix(0.019999999999999997,0,0,0.019999999999999997,10.54,0)" xlink:href="#cp"/></g><g id="ac"><use transform="matrix(0.019999999999999997,0,0,0.019999999999999997,0,0)" xlink:href="#ck"/><use transform="matrix(0.019999999999999997,0,0,0.019999999999999997,10.359999999999998,0)" xlink:href="#cc"/><use transform="matrix(0.019999999999999997,0,0,0.019999999999999997,20.9,0)" xlink:href="#ct"/></g><path d="M199 0l-22-63H83L61 0H9l90-248h61L250 0h-51zm-33-102l-36-108c-10 38-24 72-36 108h72" id="cx"/><path d="M25 0v-261h50V0H25" id="cy"/><path d="M135-150c-39-12-60 13-60 57V0H25l-1-190h47c2 13-1 29 3 40 6-28 27-53 61-41v41" id="cz"/><path d="M220-157c-53 9-28 100-34 157h-49v-107c1-27-5-49-29-50C55-147 81-57 75 0H25l-1-190h47c2 12-1 28 3 38 10-53 101-56 108 0 13-22 24-43 59-42 82 1 51 116 57 194h-49v-107c-1-25-5-48-29-50" id="cA"/><g id="ad"><use transform="matrix(0.08024691358024691,0,0,0.08024691358024691,0,0)" xlink:href="#cx"/><use transform="matrix(0.08024691358024691,0,0,0.08024691358024691,20.78395061728395,0)" xlink:href="#cy"/><use transform="matrix(0.08024691358024691,0,0,0.08024691358024691,28.80864197530864,0)" xlink:href="#bI"/><use transform="matrix(0.08024691358024691,0,0,0.08024691358024691,46.3827160493827,0)" xlink:href="#bE"/><use transform="matrix(0.08024691358024691,0,0,0.08024691358024691,63.956790123456784,0)" xlink:href="#cz"/><use transform="matrix(0.08024691358024691,0,0,0.08024691358024691,75.19135802469135,0)" xlink:href="#bB"/><use transform="matrix(0.08024691358024691,0,0,0.08024691358024691,83.21604938271605,0)" xlink:href="#bJ"/><use transform="matrix(0.08024691358024691,0,0,0.08024691358024691,92.76543209876543,0)" xlink:href="#bz"/><use transform="matrix(0.08024691358024691,0,0,0.08024691358024691,110.3395061728395,0)" xlink:href="#cA"/></g><g id="ae"><use transform="matrix(0.08024691358024691,0,0,0.08024691358024691,0,0)" xlink:href="#bE"/><use transform="matrix(0.08024691358024691,0,0,0.08024691358024691,17.574074074074073,0)" xlink:href="#bF"/></g><path d="M137-138c1-29-70-34-71-4 15 46 118 7 119 86 1 83-164 76-172 9l43-7c4 19 20 25 44 25 33 8 57-30 24-41C81-84 22-81 20-136c-2-80 154-74 161-7" id="cB"/><g id="af"><use transform="matrix(0.08024691358024691,0,0,0.08024691358024691,0,0)" xlink:href="#bG"/><use transform="matrix(0.08024691358024691,0,0,0.08024691358024691,17.574074074074073,0)" xlink:href="#bz"/><use transform="matrix(0.08024691358024691,0,0,0.08024691358024691,35.148148148148145,0)" xlink:href="#bE"/><use transform="matrix(0.08024691358024691,0,0,0.08024691358024691,52.72222222222221,0)" xlink:href="#bH"/><use transform="matrix(0.08024691358024691,0,0,0.08024691358024691,70.29629629629629,0)" xlink:href="#bI"/><use transform="matrix(0.08024691358024691,0,0,0.08024691358024691,87.87037037037037,0)" xlink:href="#bz"/><use transform="matrix(0.08024691358024691,0,0,0.08024691358024691,105.44444444444444,0)" xlink:href="#bJ"/><use transform="matrix(0.08024691358024691,0,0,0.08024691358024691,114.99382716049382,0)" xlink:href="#cB"/></g><g id="ag"><use transform="matrix(0.019999999999999993,0,0,0.019999999999999993,0,0)" xlink:href="#cd"/><use transform="matrix(0.019999999999999993,0,0,0.019999999999999993,14.539999999999996,0)" xlink:href="#bW"/><use transform="matrix(0.019999999999999993,0,0,0.019999999999999993,21.319999999999993,0)" xlink:href="#bW"/><use transform="matrix(0.019999999999999993,0,0,0.019999999999999993,28.199999999999992,0)" xlink:href="#ce"/><use transform="matrix(0.019999999999999993,0,0,0.019999999999999993,33.77999999999999,0)" xlink:href="#bW"/><use transform="matrix(0.019999999999999993,0,0,0.019999999999999993,40.47999999999998,0)" xlink:href="#cf"/><use transform="matrix(0.019999999999999993,0,0,0.019999999999999993,47.23999999999999,0)" xlink:href="#cg"/><use transform="matrix(0.019999999999999993,0,0,0.019999999999999993,55.51999999999998,0)" xlink:href="#ch"/><use transform="matrix(0.019999999999999993,0,0,0.019999999999999993,66.39999999999998,0)" xlink:href="#cf"/><use transform="matrix(0.019999999999999993,0,0,0.019999999999999993,72.77999999999997,0)" xlink:href="#bZ"/></g><g id="ah"><use transform="matrix(0.019999999999999993,0,0,0.019999999999999993,0,0)" xlink:href="#cu"/><use transform="matrix(0.019999999999999993,0,0,0.019999999999999993,9.639999999999997,0)" xlink:href="#ct"/></g><g id="ai"><use transform="matrix(0.019999999999999993,0,0,0.019999999999999993,0,0)" xlink:href="#cc"/><use transform="matrix(0.019999999999999993,0,0,0.019999999999999993,10.539999999999997,0)" xlink:href="#bZ"/></g><g id="aj"><use transform="matrix(0.019999999999999993,0,0,0.019999999999999993,0,0)" xlink:href="#ca"/><use transform="matrix(0.019999999999999993,0,0,0.019999999999999993,10.539999999999997,0)" xlink:href="#co"/></g><g id="ak"><use transform="matrix(0.019999999999999993,0,0,0.019999999999999993,0,0)" xlink:href="#cv"/><use transform="matrix(0.019999999999999993,0,0,0.019999999999999993,10.539999999999997,0)" xlink:href="#cp"/></g><use transform="matrix(0.019999999999999993,0,0,0.019999999999999993,0,0)" xlink:href="#ct" id="al"/><use transform="matrix(0.019999999999999993,0,0,0.019999999999999993,0,0)" xlink:href="#ct" id="am"/><path d="M188-344c47-32 149-128 149-186 0-54-47-99-105-99-55 0-113 42-144 105l-19-7c36-93 114-153 199-153 80 0 140 51 140 120 0 54-39 108-112 152 103-6 175 73 175 176 0 133-128 251-272 251-86 0-161-36-161-77 0-19 16-36 34-36 16 0 26 6 64 37 46 37 67 47 100 47 84 0 155-90 155-195 0-119-106-194-192-119" id="cC"/><g id="an"><use transform="matrix(0.019999999999999993,0,0,0.019999999999999993,0,0)" xlink:href="#cC"/><use transform="matrix(0.019999999999999993,0,0,0.019999999999999993,10.539999999999997,0)" xlink:href="#ct"/></g><use transform="matrix(0.019999999999999993,0,0,0.019999999999999993,0,0)" xlink:href="#ca" id="ao"/><g id="ap"><use transform="matrix(0.019999999999999993,0,0,0.019999999999999993,0,0)" xlink:href="#cb"/><use transform="matrix(0.019999999999999993,0,0,0.019999999999999993,10.539999999999997,0)" xlink:href="#bZ"/></g><use transform="matrix(0.019999999999999993,0,0,0.019999999999999993,0,0)" xlink:href="#ci" id="aq"/><g id="ar"><use transform="matrix(0.019999999999999993,0,0,0.019999999999999993,0,0)" xlink:href="#ck"/><use transform="matrix(0.019999999999999993,0,0,0.019999999999999993,10.539999999999997,0)" xlink:href="#cp"/></g><g id="as"><use transform="matrix(0.019999999999999993,0,0,0.019999999999999993,0,0)" xlink:href="#cu"/><use transform="matrix(0.019999999999999993,0,0,0.019999999999999993,9.699999999999998,0)" xlink:href="#cv"/><use transform="matrix(0.019999999999999993,0,0,0.019999999999999993,20.239999999999995,0)" xlink:href="#co"/></g><g id="at"><use transform="matrix(0.019999999999999993,0,0,0.019999999999999993,0,0)" xlink:href="#cu"/><use transform="matrix(0.019999999999999993,0,0,0.019999999999999993,9.379999999999997,0)" xlink:href="#cb"/><use transform="matrix(0.019999999999999993,0,0,0.019999999999999993,19.919999999999995,0)" xlink:href="#co"/></g><g id="au"><use transform="matrix(0.019999999999999993,0,0,0.019999999999999993,0,0)" xlink:href="#ck"/><use transform="matrix(0.019999999999999993,0,0,0.019999999999999993,10.539999999999997,0)" xlink:href="#co"/></g><g id="av"><use transform="matrix(0.019999999999999993,0,0,0.019999999999999993,0,0)" xlink:href="#cv"/><use transform="matrix(0.019999999999999993,0,0,0.019999999999999993,10.539999999999997,0)" xlink:href="#cp"/></g><g id="aw"><use transform="matrix(0.019999999999999993,0,0,0.019999999999999993,0,0)" xlink:href="#cv"/><use transform="matrix(0.019999999999999993,0,0,0.019999999999999993,10.539999999999997,0)" xlink:href="#co"/></g><path d="M203 13C132 13 90-27 90-126v-210c7-38-30-46-67-54v-16l138-30v251c0 75 0 90 16 109 57 67 140 38 209-22v-199c0-55-1-62-7-72-7-12-9-14-55-21l-32-5v-15l165-26v359c-3 51 38 30 72 27v19L386 13v-87c-78 57-141 87-183 87" id="cD"/><path d="M450-117c0 86 20 68 78 54v22L392 13h-13v-77c-72 51-129 77-169 77-94 0-171-93-171-208 0-171 171-287 340-216v-183c0-56-1-56-43-61l-36-4v-18l137-44h13v604zM110-226c0 107 62 192 140 192 33 0 84-20 129-51v-237c-40-57-79-81-131-81-80 0-138 74-138 177" id="cE"/><g id="ax"><use transform="matrix(0.019999999999999993,0,0,0.019999999999999993,0,0)" xlink:href="#cD"/><use transform="matrix(0.019999999999999993,0,0,0.019999999999999993,11.159999999999997,0)" xlink:href="#ch"/><use transform="matrix(0.019999999999999993,0,0,0.019999999999999993,22.159999999999993,0)" xlink:href="#cE"/><use transform="matrix(0.019999999999999993,0,0,0.019999999999999993,32.77999999999999,0)" xlink:href="#bX"/><use transform="matrix(0.019999999999999993,0,0,0.019999999999999993,41.639999999999986,0)" xlink:href="#cn"/><use transform="matrix(0.019999999999999993,0,0,0.019999999999999993,47.45999999999999,0)" xlink:href="#ce"/><use transform="matrix(0.019999999999999993,0,0,0.019999999999999993,53.039999999999985,0)" xlink:href="#ch"/><use transform="matrix(0.019999999999999993,0,0,0.019999999999999993,64.01999999999998,0)" xlink:href="#bX"/><use transform="matrix(0.019999999999999993,0,0,0.019999999999999993,73.17999999999998,0)" xlink:href="#cE"/></g><g id="ay"><use transform="matrix(0.019999999999999993,0,0,0.019999999999999993,0,0)" xlink:href="#cu"/><use transform="matrix(0.019999999999999993,0,0,0.019999999999999993,9.559999999999997,0)" xlink:href="#ca"/><use transform="matrix(0.019999999999999993,0,0,0.019999999999999993,20.099999999999994,0)" xlink:href="#co"/></g><g id="az"><use transform="matrix(0.019999999999999993,0,0,0.019999999999999993,0,0)" xlink:href="#cu"/><use transform="matrix(0.019999999999999993,0,0,0.019999999999999993,9.099999999999998,0)" xlink:href="#cc"/><use transform="matrix(0.019999999999999993,0,0,0.019999999999999993,19.639999999999993,0)" xlink:href="#co"/></g><g id="aA"><use transform="matrix(0.019999999999999993,0,0,0.019999999999999993,0,0)" xlink:href="#cC"/><use transform="matrix(0.019999999999999993,0,0,0.019999999999999993,10.539999999999997,0)" xlink:href="#ck"/><use transform="matrix(0.019999999999999993,0,0,0.019999999999999993,21.079999999999995,0)" xlink:href="#co"/></g><use transform="matrix(0.019999999999999993,0,0,0.019999999999999993,0,0)" xlink:href="#ca" id="aB"/><path d="M1 239l214-947h41L41 239H1" id="cF"/><use transform="matrix(0.019999999999999993,0,0,0.019999999999999993,0,0)" xlink:href="#cF" id="aC"/><g id="aD"><use transform="matrix(0.019999999999999993,0,0,0.019999999999999993,0,0)" xlink:href="#cu"/><use transform="matrix(0.019999999999999993,0,0,0.019999999999999993,10.539999999999997,0)" xlink:href="#cp"/></g><g id="aE"><use transform="matrix(0.019999999999999993,0,0,0.019999999999999993,0,0)" xlink:href="#cC"/><use transform="matrix(0.019999999999999993,0,0,0.019999999999999993,10.539999999999997,0)" xlink:href="#co"/></g><g id="aF"><use transform="matrix(0.019999999999999993,0,0,0.019999999999999993,0,0)" xlink:href="#cu"/><use transform="matrix(0.019999999999999993,0,0,0.019999999999999993,10.539999999999997,0)" xlink:href="#co"/></g><use transform="matrix(0.019999999999999993,0,0,0.019999999999999993,0,0)" xlink:href="#ck" id="aG"/><g id="aH"><use transform="matrix(0.019999999999999993,0,0,0.019999999999999993,0,0)" xlink:href="#ck"/><use transform="matrix(0.019999999999999993,0,0,0.019999999999999993,10.539999999999997,0)" xlink:href="#bZ"/></g><g id="aI"><use transform="matrix(0.019999999999999993,0,0,0.019999999999999993,0,0)" xlink:href="#cc"/><use transform="matrix(0.019999999999999993,0,0,0.019999999999999993,10.539999999999997,0)" xlink:href="#cp"/></g><g id="aJ"><use transform="matrix(0.019999999999999993,0,0,0.019999999999999993,0,0)" xlink:href="#ck"/><use transform="matrix(0.019999999999999993,0,0,0.019999999999999993,10.359999999999996,0)" xlink:href="#cc"/></g><path d="M56-64v-38l312-202L56-513v-100l414 277v6" id="cG"/><g id="aK"><use transform="matrix(0.019999999999999993,0,0,0.019999999999999993,0,0)" xlink:href="#ci"/><use transform="matrix(0.019999999999999993,0,0,0.019999999999999993,8.499999999999996,0)" xlink:href="#cG"/></g><path d="M274 13C149 13 40-81 40-214c0-125 100-222 230-222 131 0 232 98 232 226C502-85 402 13 274 13zM120-244c0 128 74 232 166 232 78 0 136-74 136-172 0-123-76-227-166-227-78 0-136 71-136 167" id="cH"/><g id="aL"><use transform="matrix(0.019999999999999993,0,0,0.019999999999999993,0,0)" xlink:href="#cn"/><use transform="matrix(0.019999999999999993,0,0,0.019999999999999993,5.399999999999999,0)" xlink:href="#cH"/><use transform="matrix(0.019999999999999993,0,0,0.019999999999999993,16.039999999999996,0)" xlink:href="#cD"/><use transform="matrix(0.019999999999999993,0,0,0.019999999999999993,27.199999999999992,0)" xlink:href="#ch"/><use transform="matrix(0.019999999999999993,0,0,0.019999999999999993,38.19999999999999,0)" xlink:href="#cE"/></g><path d="M131-160c-14-164-28-326-43-490-3-28 51-17 75-17 33 0 28 9 25 36l-40 471h-17zM84-39c0-28 24-50 55-50 33 0 56 22 56 51 0 30-23 51-56 51-32 0-55-22-55-52" id="cI"/><g id="aM"><use transform="matrix(0.019999999999999993,0,0,0.019999999999999993,0,0)" xlink:href="#ce"/><use transform="matrix(0.019999999999999993,0,0,0.019999999999999993,5.579999999999998,0)" xlink:href="#cf"/><use transform="matrix(0.019999999999999993,0,0,0.019999999999999993,11.959999999999999,0)" xlink:href="#cI"/></g><g id="aO"><use transform="matrix(0.019999999999999997,0,0,0.019999999999999997,0,0)" xlink:href="#cu"/><use transform="matrix(0.019999999999999997,0,0,0.019999999999999997,9.639999999999999,0)" xlink:href="#ct"/></g><g id="aP"><use transform="matrix(0.019999999999999997,0,0,0.019999999999999997,0,0)" xlink:href="#cu"/><use transform="matrix(0.019999999999999997,0,0,0.019999999999999997,9.08,0)" xlink:href="#cu"/></g><g id="aQ"><use transform="matrix(0.019999999999999997,0,0,0.019999999999999997,0,0)" xlink:href="#cu"/><use transform="matrix(0.019999999999999997,0,0,0.019999999999999997,10.54,0)" xlink:href="#bZ"/></g><g id="aR"><use transform="matrix(0.019999999999999997,0,0,0.019999999999999997,0,0)" xlink:href="#cu"/><use transform="matrix(0.019999999999999997,0,0,0.019999999999999997,9.7,0)" xlink:href="#cv"/><use transform="matrix(0.019999999999999997,0,0,0.019999999999999997,20.24,0)" xlink:href="#co"/></g><use transform="matrix(0.019999999999999997,0,0,0.019999999999999997,0,0)" xlink:href="#ct" id="aS"/><g id="aT"><use transform="matrix(0.019999999999999997,0,0,0.019999999999999997,0,0)" xlink:href="#cw"/><use transform="matrix(0.019999999999999997,0,0,0.019999999999999997,10.54,0)" xlink:href="#ct"/></g><use transform="matrix(0.019999999999999997,0,0,0.019999999999999997,0,0)" xlink:href="#cq" id="aU"/><g id="aV"><use transform="matrix(0.019999999999999997,0,0,0.019999999999999997,0,0)" xlink:href="#cu"/><use transform="matrix(0.019999999999999997,0,0,0.019999999999999997,10.159999999999998,0)" xlink:href="#ck"/><use transform="matrix(0.019999999999999997,0,0,0.019999999999999997,20.699999999999996,0)" xlink:href="#co"/></g><use transform="matrix(0.019999999999999997,0,0,0.019999999999999997,0,0)" xlink:href="#ci" id="aW"/><g id="aX"><use transform="matrix(0.019999999999999997,0,0,0.019999999999999997,0,0)" xlink:href="#cu"/><use transform="matrix(0.019999999999999997,0,0,0.019999999999999997,10.159999999999998,0)" xlink:href="#ck"/></g><g id="aY"><use transform="matrix(0.019999999999999997,0,0,0.019999999999999997,0,0)" xlink:href="#cu"/><use transform="matrix(0.019999999999999997,0,0,0.019999999999999997,9.7,0)" xlink:href="#cv"/><use transform="matrix(0.019999999999999997,0,0,0.019999999999999997,20.24,0)" xlink:href="#bZ"/></g><g id="aZ"><use transform="matrix(0.019999999999999997,0,0,0.019999999999999997,0,0)" xlink:href="#ck"/><use transform="matrix(0.019999999999999997,0,0,0.019999999999999997,10.54,0)" xlink:href="#ck"/><use transform="matrix(0.019999999999999997,0,0,0.019999999999999997,21.08,0)" xlink:href="#co"/></g><g id="ba"><use transform="matrix(0.019999999999999997,0,0,0.019999999999999997,0,0)" xlink:href="#cw"/><use transform="matrix(0.019999999999999997,0,0,0.019999999999999997,10.54,0)" xlink:href="#cp"/></g><path d="M153 15l259-613H141c-70 0-73 2-82 63H41l8-132h425v22L212 15h-59" id="cJ"/><g id="bb"><use transform="matrix(0.019999999999999997,0,0,0.019999999999999997,0,0)" xlink:href="#ck"/><use transform="matrix(0.019999999999999997,0,0,0.019999999999999997,10.54,0)" xlink:href="#cJ"/><use transform="matrix(0.019999999999999997,0,0,0.019999999999999997,21.08,0)" xlink:href="#co"/></g><g id="bc"><use transform="matrix(0.019999999999999997,0,0,0.019999999999999997,0,0)" xlink:href="#cu"/><use transform="matrix(0.019999999999999997,0,0,0.019999999999999997,9.08,0)" xlink:href="#cJ"/><use transform="matrix(0.019999999999999997,0,0,0.019999999999999997,19.619999999999997,0)" xlink:href="#co"/></g><g id="bd"><use transform="matrix(0.019999999999999997,0,0,0.019999999999999997,0,0)" xlink:href="#cu"/><use transform="matrix(0.019999999999999997,0,0,0.019999999999999997,9.08,0)" xlink:href="#cu"/><use transform="matrix(0.019999999999999997,0,0,0.019999999999999997,18.78,0)" xlink:href="#cv"/><use transform="matrix(0.019999999999999997,0,0,0.019999999999999997,29.32,0)" xlink:href="#co"/></g><g id="be"><use transform="matrix(0.019999999999999997,0,0,0.019999999999999997,0,0)" xlink:href="#cc"/><use transform="matrix(0.019999999999999997,0,0,0.019999999999999997,10.54,0)" xlink:href="#ct"/><use transform="matrix(0.019999999999999997,0,0,0.019999999999999997,16.119999999999997,0)" xlink:href="#cc"/></g><g id="bf"><use transform="matrix(0.019999999999999997,0,0,0.019999999999999997,0,0)" xlink:href="#cw"/><use transform="matrix(0.019999999999999997,0,0,0.019999999999999997,10.54,0)" xlink:href="#co"/></g><g id="bg"><use transform="matrix(0.019999999999999997,0,0,0.019999999999999997,0,0)" xlink:href="#ck"/><use transform="matrix(0.019999999999999997,0,0,0.019999999999999997,10.54,0)" xlink:href="#cp"/></g><g id="bh"><use transform="matrix(0.019999999999999997,0,0,0.019999999999999997,0,0)" xlink:href="#cJ"/><use transform="matrix(0.019999999999999997,0,0,0.019999999999999997,10.54,0)" xlink:href="#co"/></g><g id="bi"><use transform="matrix(0.019999999999999997,0,0,0.019999999999999997,0,0)" xlink:href="#cC"/><use transform="matrix(0.019999999999999997,0,0,0.019999999999999997,10.54,0)" xlink:href="#co"/></g><g id="bj"><use transform="matrix(0.019999999999999997,0,0,0.019999999999999997,0,0)" xlink:href="#ck"/><use transform="matrix(0.019999999999999997,0,0,0.019999999999999997,10.54,0)" xlink:href="#ct"/><use transform="matrix(0.019999999999999997,0,0,0.019999999999999997,16.119999999999997,0)" xlink:href="#cw"/></g><g id="bk"><use transform="matrix(0.019999999999999997,0,0,0.019999999999999997,0,0)" xlink:href="#cu"/><use transform="matrix(0.019999999999999997,0,0,0.019999999999999997,10.159999999999998,0)" xlink:href="#ck"/><use transform="matrix(0.019999999999999997,0,0,0.019999999999999997,20.699999999999996,0)" xlink:href="#cv"/><use transform="matrix(0.019999999999999997,0,0,0.019999999999999997,31.239999999999995,0)" xlink:href="#co"/></g><g id="bl"><use transform="matrix(0.019999999999999997,0,0,0.019999999999999997,0,0)" xlink:href="#ck"/><use transform="matrix(0.019999999999999997,0,0,0.019999999999999997,10.359999999999998,0)" xlink:href="#cc"/></g><g id="bm"><use transform="matrix(0.019999999999999997,0,0,0.019999999999999997,0,0)" xlink:href="#cu"/><use transform="matrix(0.019999999999999997,0,0,0.019999999999999997,10.159999999999998,0)" xlink:href="#ck"/><use transform="matrix(0.019999999999999997,0,0,0.019999999999999997,20.699999999999996,0)" xlink:href="#cv"/></g><use transform="matrix(0.019999999999999997,0,0,0.019999999999999997,0,0)" xlink:href="#cF" id="bn"/><g id="bo"><use transform="matrix(0.019999999999999997,0,0,0.019999999999999997,0,0)" xlink:href="#ci"/><use transform="matrix(0.019999999999999997,0,0,0.019999999999999997,8.499999999999998,0)" xlink:href="#cG"/></g><g id="bp"><use transform="matrix(0.019999999999999997,0,0,0.019999999999999997,0,0)" xlink:href="#cn"/><use transform="matrix(0.019999999999999997,0,0,0.019999999999999997,5.3999999999999995,0)" xlink:href="#cH"/><use transform="matrix(0.019999999999999997,0,0,0.019999999999999997,16.04,0)" xlink:href="#cD"/><use transform="matrix(0.019999999999999997,0,0,0.019999999999999997,27.199999999999996,0)" xlink:href="#ch"/><use transform="matrix(0.019999999999999997,0,0,0.019999999999999997,38.199999999999996,0)" xlink:href="#cE"/></g><g id="bq"><use transform="matrix(0.019999999999999997,0,0,0.019999999999999997,0,0)" xlink:href="#ce"/><use transform="matrix(0.019999999999999997,0,0,0.019999999999999997,5.579999999999999,0)" xlink:href="#cf"/><use transform="matrix(0.019999999999999997,0,0,0.019999999999999997,11.959999999999997,0)" xlink:href="#cI"/></g><g id="br"><use transform="matrix(0.019999999999999997,0,0,0.019999999999999997,0,0)" xlink:href="#cd"/><use transform="matrix(0.019999999999999997,0,0,0.019999999999999997,14.539999999999997,0)" xlink:href="#ch"/><use transform="matrix(0.019999999999999997,0,0,0.019999999999999997,25.779999999999998,0)" xlink:href="#bW"/><use transform="matrix(0.019999999999999997,0,0,0.019999999999999997,32.879999999999995,0)" xlink:href="#cs"/><use transform="matrix(0.019999999999999997,0,0,0.019999999999999997,47.65999999999999,0)" xlink:href="#bX"/><use transform="matrix(0.019999999999999997,0,0,0.019999999999999997,56.52,0)" xlink:href="#bY"/><use transform="matrix(0.019999999999999997,0,0,0.019999999999999997,63.67999999999999,0)" xlink:href="#bZ"/></g><path d="M169-182c-1-43-94-46-97-3 18 66 151 10 154 114 3 95-165 93-204 36-6-8-10-19-12-30l50-8c3 46 112 56 116 5-17-69-150-10-154-114-4-87 153-88 188-35 5 8 8 18 10 28" id="cK"/><path d="M88-194c31-1 46 15 58 34l-1-101h50l1 261h-48c-2-10 0-23-3-31C134-8 116 4 84 4 32 4 16-41 15-95c0-56 19-97 73-99zm17 164c33 0 40-30 41-66 1-37-9-64-41-64s-38 30-39 65c0 43 13 65 39 65" id="cL"/><g id="bs"><use transform="matrix(0.08024691358024691,0,0,0.08024691358024691,0,0)" xlink:href="#cK"/><use transform="matrix(0.08024691358024691,0,0,0.08024691358024691,19.25925925925926,0)" xlink:href="#bJ"/><use transform="matrix(0.08024691358024691,0,0,0.08024691358024691,28.80864197530864,0)" xlink:href="#bA"/><use transform="matrix(0.08024691358024691,0,0,0.08024691358024691,44.858024691358025,0)" xlink:href="#bC"/><use transform="matrix(0.08024691358024691,0,0,0.08024691358024691,62.4320987654321,0)" xlink:href="#cL"/><use transform="matrix(0.08024691358024691,0,0,0.08024691358024691,80.00617283950618,0)" xlink:href="#bA"/><use transform="matrix(0.08024691358024691,0,0,0.08024691358024691,96.05555555555556,0)" xlink:href="#cz"/><use transform="matrix(0.08024691358024691,0,0,0.08024691358024691,107.29012345679014,0)" xlink:href="#cL"/></g><path d="M24-248c93 1 206-16 204 79-1 75-69 88-152 82V0H24v-248zm52 121c47 0 100 7 100-41 0-47-54-39-100-39v80" id="cM"/><path d="M135-194c53 0 70 44 70 98 0 56-19 98-73 100-31 1-45-17-59-34 3 33 2 69 2 105H25l-1-265h48c2 10 0 23 3 31 11-24 29-35 60-35zM114-30c33 0 39-31 40-66 0-38-9-64-40-64-56 0-55 130 0 130" id="cN"/><g id="bt"><use transform="matrix(0.08024691358024691,0,0,0.08024691358024691,0,0)" xlink:href="#cM"/><use transform="matrix(0.08024691358024691,0,0,0.08024691358024691,19.25925925925926,0)" xlink:href="#cz"/><use transform="matrix(0.08024691358024691,0,0,0.08024691358024691,30.49382716049383,0)" xlink:href="#bE"/><use transform="matrix(0.08024691358024691,0,0,0.08024691358024691,48.0679012345679,0)" xlink:href="#cA"/><use transform="matrix(0.08024691358024691,0,0,0.08024691358024691,73.74691358024691,0)" xlink:href="#cN"/><use transform="matrix(0.08024691358024691,0,0,0.08024691358024691,91.32098765432099,0)" xlink:href="#bJ"/><use transform="matrix(0.08024691358024691,0,0,0.08024691358024691,100.87037037037037,0)" xlink:href="#bB"/><use transform="matrix(0.08024691358024691,0,0,0.08024691358024691,108.89506172839505,0)" xlink:href="#bC"/><use transform="matrix(0.08024691358024691,0,0,0.08024691358024691,126.46913580246915,0)" xlink:href="#bI"/></g><use transform="matrix(0.019999999999999993,0,0,0.019999999999999993,0,0)" xlink:href="#cu" id="bu"/><g id="bv"><use transform="matrix(0.019999999999999997,0,0,0.019999999999999997,0,0)" xlink:href="#cl"/><use transform="matrix(0.019999999999999997,0,0,0.019999999999999997,6.479999999999999,0)" xlink:href="#cu"/><use transform="matrix(0.019999999999999997,0,0,0.019999999999999997,15.559999999999997,0)" xlink:href="#cu"/></g><g id="bw"><use transform="matrix(0.019999999999999997,0,0,0.019999999999999997,0,0)" xlink:href="#cl"/><use transform="matrix(0.019999999999999997,0,0,0.019999999999999997,6.479999999999999,0)" xlink:href="#cu"/><use transform="matrix(0.019999999999999997,0,0,0.019999999999999997,16.18,0)" xlink:href="#cv"/></g><g id="bx"><use transform="matrix(0.019999999999999997,0,0,0.019999999999999997,0,0)" xlink:href="#ck"/><use transform="matrix(0.019999999999999997,0,0,0.019999999999999997,10.359999999999998,0)" xlink:href="#cc"/></g></defs></g></svg>