<svg xmlns="http://www.w3.org/2000/svg" xmlns:xlink="http://www.w3.org/1999/xlink" xmlns:lucid="lucid" width="1612" height="619"><g transform="translate(-306 -68)" lucid:page-tab-id="0_0"><path d="M542.9 160c0 22.1-34.68 40-77.46 40-42.77 0-77.44-17.9-77.44-40s34.67-40 77.44-40c42.78 0 77.45 17.9 77.45 40z" stroke="#2885ff" stroke-width="2" fill="#bad8ff"/><use xlink:href="#a" transform="matrix(1,0,0,1,393,125) translate(28.060555555555567 42.937499999999986)"/><path d="M542.9 560c0 22.1-34.68 40-77.46 40-42.77 0-77.44-17.9-77.44-40s34.67-40 77.44-40c42.78 0 77.45 17.9 77.45 40z" stroke="#008a0e" stroke-width="2" fill="#d7ffb9"/><use xlink:href="#b" transform="matrix(1,0,0,1,393,525) translate(12.505000000000019 42.937499999999986)"/><path d="M465.44 202.5v295.88" stroke="#3a414a" stroke-width="3" fill="none"/><path d="M465.43 201l1.5-.02v1.56h-2.96v-1.6z" stroke="#3a414a" stroke-width=".05" fill="#3a414a"/><path d="M465.44 514.14l-4.63-14.26h9.28z" stroke="#3a414a" stroke-width="3" fill="#3a414a"/><path d="M796.9 160c0 22.1-34.68 40-77.46 40-42.77 0-77.44-17.9-77.44-40s34.67-40 77.44-40c42.78 0 77.45 17.9 77.45 40z" stroke="#2885ff" stroke-width="2" fill="#bad8ff"/><use xlink:href="#a" transform="matrix(1,0,0,1,647,125) translate(28.060555555555567 42.937499999999986)"/><path d="M796.9 560c0 22.1-34.68 40-77.46 40-42.77 0-77.44-17.9-77.44-40s34.67-40 77.44-40c42.78 0 77.45 17.9 77.45 40z" stroke="#008a0e" stroke-width="2" fill="#d7ffb9"/><use xlink:href="#b" transform="matrix(1,0,0,1,647,525) translate(12.505000000000019 42.937499999999986)"/><path d="M1168.65 160c0 22.1-34.68 40-77.45 40s-77.44-17.9-77.44-40 34.67-40 77.44-40c42.77 0 77.45 17.9 77.45 40z" stroke="#2885ff" stroke-width="2" fill="#bad8ff"/><use xlink:href="#a" transform="matrix(1,0,0,1,1018.7592502192551,125) translate(28.060555555555567 42.937499999999986)"/><path d="M1168.65 560c0 22.1-34.68 40-77.45 40s-77.44-17.9-77.44-40 34.67-40 77.44-40c42.77 0 77.45 17.9 77.45 40z" stroke="#008a0e" stroke-width="2" fill="#d7ffb9"/><use xlink:href="#b" transform="matrix(1,0,0,1,1018.7592502192551,525) translate(12.505000000000019 42.937499999999986)"/><path d="M960 259a1 1 0 0 1 1-1h59a1 1 0 0 1 1 1v34a1 1 0 0 1-1 1h-59a1 1 0 0 1-1-1z" stroke="#008a0e" stroke-width="2" fill="#88bd70"/><path d="M1262.6 340.5a1 1 0 0 1 1-1h59a1 1 0 0 1 1 1v34a1 1 0 0 1-1 1h-59a1 1 0 0 1-1-1zM959.76 340.5a1 1 0 0 1 1-1h59a1 1 0 0 1 1 1v34a1 1 0 0 1-1 1h-59a1 1 0 0 1-1-1z" stroke="#f99" stroke-width="2" fill="#ffcfcf"/><path d="M1060.7 340.5a1 1 0 0 1 1-1h59a1 1 0 0 1 1 1v34a1 1 0 0 1-1 1h-59a1 1 0 0 1-1-1z" stroke="#008a0e" stroke-width="2" fill="#88bd70"/><path d="M1161.4 259a1 1 0 0 1 1-1h59a1 1 0 0 1 1 1v34a1 1 0 0 1-1 1h-59a1 1 0 0 1-1-1z" stroke="#f99" stroke-width="2" fill="#ffcfcf"/><path d="M858.82 340.5a1 1 0 0 1 1-1h59a1 1 0 0 1 1 1v34a1 1 0 0 1-1 1h-59a1 1 0 0 1-1-1zM1161.65 340.5a1 1 0 0 1 1-1h59a1 1 0 0 1 1 1v34a1 1 0 0 1-1 1h-59a1 1 0 0 1-1-1zM1060.7 259a1 1 0 0 1 1-1h59a1 1 0 0 1 1 1v34a1 1 0 0 1-1 1h-59a1 1 0 0 1-1-1z" stroke="#008a0e" stroke-width="2" fill="#88bd70"/><path d="M1089.9 201.73l-81.38 45.25" stroke="#000" stroke-width="3" fill="none"/><path d="M1091.2 201l3.1-.03-3.72 2.07-1.17-2.1z" stroke="#000" stroke-width=".05"/><path d="M994.74 254.64l10.22-10.98 4.5 8.1z" stroke="#000" stroke-width="3"/><path d="M1092.52 201.73l81.37 45.25" stroke="#000" stroke-width="3" fill="none"/><path d="M1091.2 201l1.77-.02-1.14 2.06-3.85-2.14z" stroke="#000" stroke-width=".05"/><path d="M1187.66 254.64l-14.72-2.88 4.5-8.1z" stroke="#000" stroke-width="3"/><path d="M1091.2 202.5v33.88" stroke="#000" stroke-width="3" fill="none"/><path d="M1091.2 201l1.48-.02v1.56h-2.95v-1.6z" stroke="#000" stroke-width=".05"/><path d="M1091.2 252.15l-4.63-14.27h9.27z" stroke="#000" stroke-width="3"/><path d="M1262.6 420.5a1 1 0 0 1 1-1h59a1 1 0 0 1 1 1v34a1 1 0 0 1-1 1h-59a1 1 0 0 1-1-1z" stroke="#f99" stroke-width="2" fill="#ffcfcf"/><path d="M959.76 420.5a1 1 0 0 1 1-1h59a1 1 0 0 1 1 1v34a1 1 0 0 1-1 1h-59a1 1 0 0 1-1-1z" stroke="#008a0e" stroke-width="2" fill="#88bd70"/><path d="M1060.7 420.5a1 1 0 0 1 1-1h59a1 1 0 0 1 1 1v34a1 1 0 0 1-1 1h-59a1 1 0 0 1-1-1zM858.82 420.5a1 1 0 0 1 1-1h59a1 1 0 0 1 1 1v34a1 1 0 0 1-1 1h-59a1 1 0 0 1-1-1zM1161.65 420.5a1 1 0 0 1 1-1h59a1 1 0 0 1 1 1v34a1 1 0 0 1-1 1h-59a1 1 0 0 1-1-1z" stroke="#f99" stroke-width="2" fill="#ffcfcf"/><path d="M989.12 295.6l-80.86 34.76" stroke="#000" stroke-width="3" fill="none"/><path d="M993.84 295.17l-4.17 1.8-.84-1.97h4.93z" stroke="#000" stroke-width=".05"/><path d="M893.77 336.58l11.28-9.9 3.66 8.53z" stroke="#000" stroke-width="3"/><path d="M1089.83 295.6l-80.63 34.74" stroke="#000" stroke-width="3" fill="none"/><path d="M1094.54 295.17l-4.16 1.8-.85-1.97h4.94z" stroke="#000" stroke-width=".05"/><path d="M994.72 336.58l11.26-9.9 3.67 8.5z" stroke="#000" stroke-width="3"/><path d="M1092.58 295.6l80.63 34.74" stroke="#000" stroke-width="3" fill="none"/><path d="M1092.03 296.96l-4.16-1.8.07-.16h4.94z" stroke="#000" stroke-width=".05"/><path d="M1187.7 336.58l-14.94-1.4 3.66-8.5z" stroke="#000" stroke-width="3"/><path d="M1091.2 296.5v21.38" stroke="#000" stroke-width="3" fill="none"/><path d="M1092.68 296.54h-2.95V295h2.95z" stroke="#000" stroke-width=".05"/><path d="M1091.2 333.65l-4.63-14.27h9.27z" stroke="#000" stroke-width="3"/><path d="M1193.53 377.08l80.53 33.5" stroke="#000" stroke-width="3" fill="none"/><path d="M1193 378.45l-4.2-1.74.1-.2h4.9z" stroke="#000" stroke-width=".05"/><path d="M1288.6 416.63l-14.94-1.2 3.56-8.55z" stroke="#000" stroke-width="3"/><path d="M1190.76 377.08l-80.52 33.5" stroke="#000" stroke-width="3" fill="none"/><path d="M1195.48 376.7l-4.2 1.75-.8-1.95h4.92z" stroke="#000" stroke-width=".05"/><path d="M1095.68 416.63l11.4-9.75 3.56 8.56z" stroke="#000" stroke-width="3"/><path d="M991.53 457.3l80.7 50.74" stroke="#000" stroke-width="3" fill="none"/><path d="M990.78 458.57l-3.3-2.07h4.6z" stroke="#000" stroke-width=".05"/><path d="M1085.56 516.43l-14.54-3.67 4.93-7.85z" stroke="#000" stroke-width="3"/><path d="M1734.65 160c0 22.1-34.68 40-77.45 40s-77.44-17.9-77.44-40 34.67-40 77.44-40c42.77 0 77.45 17.9 77.45 40z" stroke="#2885ff" stroke-width="2" fill="#bad8ff"/><use xlink:href="#a" transform="matrix(1,0,0,1,1584.7592502192554,125) translate(28.060555555555567 42.937499999999986)"/><path d="M1734.65 560c0 22.1-34.68 40-77.45 40s-77.44-17.9-77.44-40 34.67-40 77.44-40c42.77 0 77.45 17.9 77.45 40z" stroke="#008a0e" stroke-width="2" fill="#d7ffb9"/><use xlink:href="#b" transform="matrix(1,0,0,1,1584.7592502192554,525) translate(12.505000000000019 42.937499999999986)"/><path d="M1829.1 340.5a1 1 0 0 1 1-1h59a1 1 0 0 1 1 1v34a1 1 0 0 1-1 1h-59a1 1 0 0 1-1-1zM1525.28 340.5a1 1 0 0 1 1-1h59a1 1 0 0 1 1 1v34a1 1 0 0 1-1 1h-59a1 1 0 0 1-1-1zM1626.56 340.5a1 1 0 0 1 1-1h59a1 1 0 0 1 1 1v34a1 1 0 0 1-1 1h-59a1 1 0 0 1-1-1zM1727.83 260.5a1 1 0 0 1 1-1h59a1 1 0 0 1 1 1v34a1 1 0 0 1-1 1h-59a1 1 0 0 1-1-1zM1424 340.5a1 1 0 0 1 1-1h59a1 1 0 0 1 1 1v34a1 1 0 0 1-1 1h-59a1 1 0 0 1-1-1z" stroke="#008a0e" stroke-width="2" fill="#88bd70"/><path d="M1727.83 340.5a1 1 0 0 1 1-1h59a1 1 0 0 1 1 1v34a1 1 0 0 1-1 1h-59a1 1 0 0 1-1-1zM1626.7 260.5a1 1 0 0 1 1-1h59a1 1 0 0 1 1 1v34a1 1 0 0 1-1 1h-59a1 1 0 0 1-1-1zM1829.1 420.5a1 1 0 0 1 1-1h59a1 1 0 0 1 1 1v34a1 1 0 0 1-1 1h-59a1 1 0 0 1-1-1z" stroke="#f99" stroke-width="2" fill="#ffcfcf"/><path d="M1525.28 420.5a1 1 0 0 1 1-1h59a1 1 0 0 1 1 1v34a1 1 0 0 1-1 1h-59a1 1 0 0 1-1-1z" stroke="#008a0e" stroke-width="2" fill="#88bd70"/><path d="M1626.56 420.5a1 1 0 0 1 1-1h59a1 1 0 0 1 1 1v34a1 1 0 0 1-1 1h-59a1 1 0 0 1-1-1z" stroke="#f99" stroke-width="2" fill="#ffcfcf"/><path d="M1424 420.5a1 1 0 0 1 1-1h59a1 1 0 0 1 1 1v34a1 1 0 0 1-1 1h-59a1 1 0 0 1-1-1zM1729 420.5a1 1 0 0 1 1-1h59a1 1 0 0 1 1 1v34a1 1 0 0 1-1 1h-59a1 1 0 0 1-1-1z" stroke="#008a0e" stroke-width="2" fill="#88bd70"/><path d="M1454.5 378v39" stroke="#000" stroke-width="3" fill="none"/><path d="M1455.97 378.04h-2.94v-1.54h2.94zM1455.97 418.5h-2.94v-1.54h2.94z" stroke="#000" stroke-width=".05"/><path d="M1455.63 417.5l67.52-59.6" stroke="#000" stroke-width="3" fill="none"/><path d="M1456.55 418.5h-4.28l2.4-2.12zM1524.28 358.9l-.18.14-1.95-2.2 2.13-1.9z" stroke="#000" stroke-width=".05"/><path d="M1655.67 377.07l-98.5 40.86" stroke="#000" stroke-width="3" fill="none"/><path d="M1660.4 376.7l-4.2 1.75-.8-1.95h4.9zM1557.44 418.5h-4.9l-.1-.2 4.2-1.75z" stroke="#000" stroke-width=".05"/><path d="M1557.05 457.3l81.14 50.78" stroke="#000" stroke-width="3" fill="none"/><path d="M1556.3 458.57l-3.3-2.07h4.6z" stroke="#000" stroke-width=".05"/><path d="M1651.56 516.44L1637 512.8l4.92-7.86z" stroke="#000" stroke-width="3"/><path d="M1525.57 260.5a1 1 0 0 1 1-1h59a1 1 0 0 1 1 1v34a1 1 0 0 1-1 1h-59a1 1 0 0 1-1-1z" stroke="#008a0e" stroke-width="2" fill="#88bd70"/><path d="M1655.9 201.74l-98.52 56.02" stroke="#000" stroke-width="3" fill="none"/><path d="M1657.2 201l3.04-.03-3.64 2.07-1.2-2.1zM1557.84 258.5h-4.75l3.58-2.04z" stroke="#000" stroke-width=".05"/><path d="M1554.7 297.07l-98.8 40.86" stroke="#000" stroke-width="3" fill="none"/><path d="M1559.4 296.72l-4.18 1.73-.8-1.95h4.9zM1456.16 338.5h-4.9l-.1-.22 4.2-1.73z" stroke="#000" stroke-width=".05"/><path d="M688.94 401a1 1 0 0 1 1-1h59a1 1 0 0 1 1 1v34a1 1 0 0 1-1 1h-59a1 1 0 0 1-1-1zM688.94 281a1 1 0 0 1 1-1h59a1 1 0 0 1 1 1v34a1 1 0 0 1-1 1h-59a1 1 0 0 1-1-1z" stroke="#008a0e" stroke-width="2" fill="#88bd70"/><path d="M719.44 202.5v75" stroke="#3a414a" stroke-width="3" fill="none"/><path d="M719.43 201l1.5-.02v1.56h-2.96v-1.6zM720.92 279h-2.95v-1.54h2.95z" stroke="#3a414a" stroke-width=".05" fill="#3a414a"/><path d="M719.44 438.5v59.88" stroke="#3a414a" stroke-width="3" fill="none"/><path d="M720.92 438.54h-2.95V437h2.95z" stroke="#3a414a" stroke-width=".05" fill="#3a414a"/><path d="M719.44 514.15l-4.63-14.27h9.28z" stroke="#3a414a" stroke-width="3" fill="#3a414a"/><path d="M719.44 318.5v79" stroke="#3a414a" stroke-width="3" fill="none"/><path d="M720.92 318.54h-2.95V317h2.95zM720.92 399h-2.95v-1.54h2.95z" stroke="#3a414a" stroke-width=".05" fill="#3a414a"/><path d="M1092.67 295.32l180.26 38.84" stroke="#000" stroke-width="3" fill="none"/><path d="M1092.4 296.77l-4.44-.96.17-.8h4.65z" stroke="#000" stroke-width=".05"/><path d="M1288.35 337.48l-14.92 1.52 1.95-9.06z" stroke="#000" stroke-width="3"/><path d="M1192.15 378v19.88" stroke="#000" stroke-width="3" fill="none"/><path d="M1193.62 378.04h-2.95v-1.54h2.95z" stroke="#000" stroke-width=".05"/><path d="M1192.15 413.65l-4.64-14.27h9.28z" stroke="#000" stroke-width="3"/><path d="M1089.82 377.08l-80.52 33.5" stroke="#000" stroke-width="3" fill="none"/><path d="M1094.54 376.7l-4.2 1.75-.8-1.95h4.9z" stroke="#000" stroke-width=".05"/><path d="M994.74 416.63l11.4-9.75 3.55 8.56z" stroke="#000" stroke-width="3"/><path d="M889.32 378v19.88" stroke="#000" stroke-width="3" fill="none"/><path d="M890.8 378.04h-2.96v-1.54h2.95z" stroke="#000" stroke-width=".05"/><path d="M889.32 413.65l-4.64-14.27h9.27z" stroke="#000" stroke-width="3"/><path d="M344 619.33a6 6 0 0 1 6-6h240a6 6 0 0 1 6 6v67.34a6 6 0 0 1-6 6H350a6 6 0 0 1-6-6z" stroke="#000" stroke-opacity="0" fill="#fff" fill-opacity="0"/><use xlink:href="#c" transform="matrix(1,0,0,1,349,618.3333333333334) translate(2.6296296296296617 41.02083333333333)"/><use xlink:href="#d" transform="matrix(1,0,0,1,349,618.3333333333334) translate(118.11111111111111 41.02083333333333)"/><path d="M598.9 622a6 6 0 0 1 6-6h228a6 6 0 0 1 6 6v62a6 6 0 0 1-6 6h-228a6 6 0 0 1-6-6z" stroke="#000" stroke-opacity="0" fill="#fff" fill-opacity="0"/><use xlink:href="#e" transform="matrix(1,0,0,1,603.8888888888887,621.0000000000001) translate(6.222222222222243 37.33333333333333)"/><use xlink:href="#f" transform="matrix(1,0,0,1,603.8888888888887,621.0000000000001) translate(83.11111111111111 37.33333333333333)"/><use xlink:href="#g" transform="matrix(1,0,0,1,603.8888888888887,621.0000000000001) translate(112.74074074074075 37.33333333333333)"/><path d="M972 624.67a6 6 0 0 1 6-6h228a6 6 0 0 1 6 6v56.66a6 6 0 0 1-6 6H978a6 6 0 0 1-6-6z" stroke="#000" stroke-opacity="0" fill="#fff" fill-opacity="0"/><use xlink:href="#h" transform="matrix(1,0,0,1,977,623.6666666666667) translate(14.111111111111128 36.08333333333333)"/><use xlink:href="#f" transform="matrix(1,0,0,1,977,623.6666666666667) translate(75.22222222222223 36.08333333333333)"/><use xlink:href="#g" transform="matrix(1,0,0,1,977,623.6666666666667) translate(104.85185185185186 36.08333333333333)"/><path d="M1521.66 622a6 6 0 0 1 6-6h258.8a6 6 0 0 1 6 6v62a6 6 0 0 1-6 6h-258.8a6 6 0 0 1-6-6z" stroke="#000" stroke-opacity="0" fill="#fff" fill-opacity="0"/><use xlink:href="#i" transform="matrix(1,0,0,1,1526.6573486473812,621) translate(0.314814814814838 37.33333333333333)"/><use xlink:href="#f" transform="matrix(1,0,0,1,1526.6573486473812,621) translate(120.01851851851852 37.33333333333333)"/><use xlink:href="#g" transform="matrix(1,0,0,1,1526.6573486473812,621) translate(149.64814814814815 37.33333333333333)"/><path d="M1790.96 278.5l67.52 59" stroke="#000" stroke-width="3" fill="none"/><path d="M1791.96 277.4l-1.94 2.22-.2-.16v-3.92zM1861.85 338.5h-4.28l1.85-2.12z" stroke="#000" stroke-width=".05"/><path d="M1758.1 417.93l-99.66-40.86" stroke="#000" stroke-width="3" fill="none"/><path d="M1762.84 418.27l-.1.23h-4.9l.8-1.95zM1657.92 378.45l-4.2-1.72.1-.23h4.9z" stroke="#000" stroke-width=".05"/><path d="M1858.23 377.08l-97.35 40.84" stroke="#000" stroke-width="3" fill="none"/><path d="M1862.95 376.7l-4.2 1.75-.8-1.95h4.9zM1761.17 418.5h-4.92l-.1-.2 4.2-1.75z" stroke="#000" stroke-width=".05"/><path d="M1557.25 338.2l199.62-41.4" stroke="#000" stroke-width="3" fill="none"/><path d="M1557.35 338.5h-4.64l-.16-.83 4.44-.93zM1761.57 297.33l-4.44.93-.37-1.76h4.64z" stroke="#000" stroke-width=".05"/><defs><path d="M33 0v-248h34V0H33" id="j"/><path d="M117-194c89-4 53 116 60 194h-32v-121c0-31-8-49-39-48C34-167 62-67 57 0H25l-1-190h30c1 10-1 24 2 32 11-22 29-35 61-36" id="k"/><path d="M115-194c55 1 70 41 70 98S169 2 115 4C84 4 66-9 55-30l1 105H24l-1-265h31l2 30c10-21 28-34 59-34zm-8 174c40 0 45-34 45-75s-6-73-45-74c-42 0-51 32-51 76 0 43 10 73 51 73" id="l"/><path d="M84 4C-5 8 30-112 23-190h32v120c0 31 7 50 39 49 72-2 45-101 50-169h31l1 190h-30c-1-10 1-25-2-33-11 22-28 36-60 37" id="m"/><path d="M59-47c-2 24 18 29 38 22v24C64 9 27 4 27-40v-127H5v-23h24l9-43h21v43h35v23H59v120" id="n"/><g id="a"><use transform="matrix(0.11111111111111108,0,0,0.11111111111111108,0,0)" xlink:href="#j"/><use transform="matrix(0.11111111111111108,0,0,0.11111111111111108,11.111111111111107,0)" xlink:href="#k"/><use transform="matrix(0.11111111111111108,0,0,0.11111111111111108,33.33333333333332,0)" xlink:href="#l"/><use transform="matrix(0.11111111111111108,0,0,0.11111111111111108,55.555555555555536,0)" xlink:href="#m"/><use transform="matrix(0.11111111111111108,0,0,0.11111111111111108,77.77777777777774,0)" xlink:href="#n"/></g><path d="M140-251c81 0 123 46 123 126C263-46 219 4 140 4 59 4 17-45 17-125s42-126 123-126zm0 227c63 0 89-41 89-101s-29-99-89-99c-61 0-89 39-89 99S79-25 140-24" id="o"/><g id="b"><use transform="matrix(0.11111111111111108,0,0,0.11111111111111108,0,0)" xlink:href="#o"/><use transform="matrix(0.11111111111111108,0,0,0.11111111111111108,31.1111111111111,0)" xlink:href="#m"/><use transform="matrix(0.11111111111111108,0,0,0.11111111111111108,53.333333333333314,0)" xlink:href="#n"/><use transform="matrix(0.11111111111111108,0,0,0.11111111111111108,64.44444444444443,0)" xlink:href="#l"/><use transform="matrix(0.11111111111111108,0,0,0.11111111111111108,86.66666666666664,0)" xlink:href="#m"/><use transform="matrix(0.11111111111111108,0,0,0.11111111111111108,108.88888888888886,0)" xlink:href="#n"/></g><path d="M185-189c-5-48-123-54-124 2 14 75 158 14 163 119 3 78-121 87-175 55-17-10-28-26-33-46l33-7c5 56 141 63 141-1 0-78-155-14-162-118-5-82 145-84 179-34 5 7 8 16 11 25" id="p"/><path d="M141-36C126-15 110 5 73 4 37 3 15-17 15-53c-1-64 63-63 125-63 3-35-9-54-41-54-24 1-41 7-42 31l-33-3c5-37 33-52 76-52 45 0 72 20 72 64v82c-1 20 7 32 28 27v20c-31 9-61-2-59-35zM48-53c0 20 12 33 32 33 41-3 63-29 60-74-43 2-92-5-92 41" id="q"/><path d="M85-194c31 0 48 13 60 33l-1-100h32l1 261h-30c-2-10 0-23-3-31C134-8 116 4 85 4 32 4 16-35 15-94c0-66 23-100 70-100zm9 24c-40 0-46 34-46 75 0 40 6 74 45 74 42 0 51-32 51-76 0-42-9-74-50-73" id="r"/><path d="M114-163C36-179 61-72 57 0H25l-1-190h30c1 12-1 29 2 39 6-27 23-49 58-41v29" id="s"/><g id="c"><use transform="matrix(0.07407407407407406,0,0,0.07407407407407406,0,0)" xlink:href="#p"/><use transform="matrix(0.07407407407407406,0,0,0.07407407407407406,17.777777777777775,0)" xlink:href="#n"/><use transform="matrix(0.07407407407407406,0,0,0.07407407407407406,25.18518518518518,0)" xlink:href="#q"/><use transform="matrix(0.07407407407407406,0,0,0.07407407407407406,39.99999999999999,0)" xlink:href="#k"/><use transform="matrix(0.07407407407407406,0,0,0.07407407407407406,54.8148148148148,0)" xlink:href="#r"/><use transform="matrix(0.07407407407407406,0,0,0.07407407407407406,69.62962962962962,0)" xlink:href="#q"/><use transform="matrix(0.07407407407407406,0,0,0.07407407407407406,84.44444444444443,0)" xlink:href="#s"/><use transform="matrix(0.07407407407407406,0,0,0.07407407407407406,93.25925925925924,0)" xlink:href="#r"/></g><path d="M30-248c87 1 191-15 191 75 0 78-77 80-158 76V0H30v-248zm33 125c57 0 124 11 124-50 0-59-68-47-124-48v98" id="t"/><path d="M100-194c62-1 85 37 85 99 1 63-27 99-86 99S16-35 15-95c0-66 28-99 85-99zM99-20c44 1 53-31 53-75 0-43-8-75-51-75s-53 32-53 75 10 74 51 75" id="u"/><path d="M210-169c-67 3-38 105-44 169h-31v-121c0-29-5-50-35-48C34-165 62-65 56 0H25l-1-190h30c1 10-1 24 2 32 10-44 99-50 107 0 11-21 27-35 58-36 85-2 47 119 55 194h-31v-121c0-29-5-49-35-48" id="v"/><path d="M24-231v-30h32v30H24zM24 0v-190h32V0H24" id="w"/><path d="M177-190C167-65 218 103 67 71c-23-6-38-20-44-43l32-5c15 47 100 32 89-28v-30C133-14 115 1 83 1 29 1 15-40 15-95c0-56 16-97 71-98 29-1 48 16 59 35 1-10 0-23 2-32h30zM94-22c36 0 50-32 50-73 0-42-14-75-50-75-39 0-46 34-46 75s6 73 46 73" id="x"/><g id="d"><use transform="matrix(0.07407407407407406,0,0,0.07407407407407406,0,0)" xlink:href="#t"/><use transform="matrix(0.07407407407407406,0,0,0.07407407407407406,17.777777777777775,0)" xlink:href="#s"/><use transform="matrix(0.07407407407407406,0,0,0.07407407407407406,26.592592592592585,0)" xlink:href="#u"/><use transform="matrix(0.07407407407407406,0,0,0.07407407407407406,41.4074074074074,0)" xlink:href="#v"/><use transform="matrix(0.07407407407407406,0,0,0.07407407407407406,63.55555555555554,0)" xlink:href="#l"/><use transform="matrix(0.07407407407407406,0,0,0.07407407407407406,78.37037037037035,0)" xlink:href="#n"/><use transform="matrix(0.07407407407407406,0,0,0.07407407407407406,85.77777777777776,0)" xlink:href="#w"/><use transform="matrix(0.07407407407407406,0,0,0.07407407407407406,91.6296296296296,0)" xlink:href="#k"/><use transform="matrix(0.07407407407407406,0,0,0.07407407407407406,106.44444444444441,0)" xlink:href="#x"/></g><path d="M212-179c-10-28-35-45-73-45-59 0-87 40-87 99 0 60 29 101 89 101 43 0 62-24 78-52l27 14C228-24 195 4 139 4 59 4 22-46 18-125c-6-104 99-153 187-111 19 9 31 26 39 46" id="y"/><path d="M106-169C34-169 62-67 57 0H25v-261h32l-1 103c12-21 28-36 61-36 89 0 53 116 60 194h-32v-121c2-32-8-49-39-48" id="z"/><g id="e"><use transform="matrix(0.07407407407407407,0,0,0.07407407407407407,0,0)" xlink:href="#y"/><use transform="matrix(0.07407407407407407,0,0,0.07407407407407407,19.185185185185183,0)" xlink:href="#z"/><use transform="matrix(0.07407407407407407,0,0,0.07407407407407407,34,0)" xlink:href="#q"/><use transform="matrix(0.07407407407407407,0,0,0.07407407407407407,48.81481481481481,0)" xlink:href="#w"/><use transform="matrix(0.07407407407407407,0,0,0.07407407407407407,54.66666666666666,0)" xlink:href="#k"/></g><path d="M101-234c-31-9-42 10-38 44h38v23H63V0H32v-167H5v-23h27c-7-52 17-82 69-68v24" id="A"/><g id="f"><use transform="matrix(0.07407407407407407,0,0,0.07407407407407407,0,0)" xlink:href="#u"/><use transform="matrix(0.07407407407407407,0,0,0.07407407407407407,14.814814814814813,0)" xlink:href="#A"/></g><path d="M127-220V0H93v-220H8v-28h204v28h-85" id="B"/><path d="M135-143c-3-34-86-38-87 0 15 53 115 12 119 90S17 21 10-45l28-5c4 36 97 45 98 0-10-56-113-15-118-90-4-57 82-63 122-42 12 7 21 19 24 35" id="C"/><g id="g"><use transform="matrix(0.07407407407407407,0,0,0.07407407407407407,0,0)" xlink:href="#B"/><use transform="matrix(0.07407407407407407,0,0,0.07407407407407407,16.22222222222222,0)" xlink:href="#z"/><use transform="matrix(0.07407407407407407,0,0,0.07407407407407407,31.037037037037035,0)" xlink:href="#u"/><use transform="matrix(0.07407407407407407,0,0,0.07407407407407407,45.85185185185185,0)" xlink:href="#m"/><use transform="matrix(0.07407407407407407,0,0,0.07407407407407407,60.66666666666666,0)" xlink:href="#x"/><use transform="matrix(0.07407407407407407,0,0,0.07407407407407407,75.48148148148147,0)" xlink:href="#z"/><use transform="matrix(0.07407407407407407,0,0,0.07407407407407407,90.29629629629628,0)" xlink:href="#n"/><use transform="matrix(0.07407407407407407,0,0,0.07407407407407407,97.70370370370368,0)" xlink:href="#C"/></g><path d="M100-194c63 0 86 42 84 106H49c0 40 14 67 53 68 26 1 43-12 49-29l28 8c-11 28-37 45-77 45C44 4 14-33 15-96c1-61 26-98 85-98zm52 81c6-60-76-77-97-28-3 7-6 17-6 28h103" id="D"/><g id="h"><use transform="matrix(0.07407407407407407,0,0,0.07407407407407407,0,0)" xlink:href="#B"/><use transform="matrix(0.07407407407407407,0,0,0.07407407407407407,15.259259259259258,0)" xlink:href="#s"/><use transform="matrix(0.07407407407407407,0,0,0.07407407407407407,24.074074074074073,0)" xlink:href="#D"/><use transform="matrix(0.07407407407407407,0,0,0.07407407407407407,38.888888888888886,0)" xlink:href="#D"/></g><path d="M205 0l-28-72H64L36 0H1l101-248h38L239 0h-34zm-38-99l-47-123c-12 45-31 82-46 123h93" id="E"/><path d="M24 0v-261h32V0H24" id="F"/><g id="i"><use transform="matrix(0.07407407407407407,0,0,0.07407407407407407,0,0)" xlink:href="#E"/><use transform="matrix(0.07407407407407407,0,0,0.07407407407407407,17.77777777777778,0)" xlink:href="#F"/><use transform="matrix(0.07407407407407407,0,0,0.07407407407407407,23.62962962962963,0)" xlink:href="#x"/><use transform="matrix(0.07407407407407407,0,0,0.07407407407407407,38.44444444444444,0)" xlink:href="#u"/><use transform="matrix(0.07407407407407407,0,0,0.07407407407407407,53.25925925925926,0)" xlink:href="#s"/><use transform="matrix(0.07407407407407407,0,0,0.07407407407407407,62.07407407407407,0)" xlink:href="#w"/><use transform="matrix(0.07407407407407407,0,0,0.07407407407407407,67.92592592592592,0)" xlink:href="#n"/><use transform="matrix(0.07407407407407407,0,0,0.07407407407407407,75.33333333333333,0)" xlink:href="#z"/><use transform="matrix(0.07407407407407407,0,0,0.07407407407407407,90.14814814814814,0)" xlink:href="#v"/></g></defs></g></svg>